<svg xmlns="http://www.w3.org/2000/svg" viewBox="0 0 160.55 65.25"><defs><style>.cls-1{fill:#28285b;}</style></defs><title>bZtJ8I.tif</title><g id="Ebene_2" data-name="Ebene 2"><g id="Gebäude"><g id="bZtJ8I.tif"><path class="cls-1" d="M6.85,7.16c.59,0,1.15.12,1.58-.64,1.85-3.26,5-4,8.4-4,14,0,27.92,0,41.88,0,1.67,0,3.39.42,4.47-1.6C63.62,0,64.88,0,65.87,0l52.77,0a3.42,3.42,0,0,1,2.81,1.13c1,1.29,2.26,1.34,3.69,1.34,8.59,0,17.17,0,25.76,0,4.6,0,7.48,2.63,8,7.29a209,209,0,0,1,.86,43.45c-.11,1.2-.41,1.7-1.72,1.69q-14.65-.06-29.31,0c-1.16,0-1.5-.37-1.66-1.52a12,12,0,0,0-23.87-.15c-.18,1.33-.65,1.7-2,1.69q-25.75,0-51.51,0c-1.33,0-1.7-.4-1.87-1.73A12,12,0,0,0,24.08,53c-.24,1.58-.82,2-2.37,2-5.79,0-11.58,0-17.37.08-2.88,0-4-1.1-4.15-4C-.27,39.87-.06,28.73,2.71,17.79a30.88,30.88,0,0,1,2.64-7m70-3.59h0c-5,0-10,0-15.07,0-1.32,0-1.83.29-1.81,1.72q.1,9,0,18c0,1.49.44,1.89,1.89,1.88q14.87-.07,29.72,0c1.43,0,1.92-.35,1.9-1.85q-.13-9,0-18c0-1.39-.41-1.78-1.77-1.76C85.27,7.22,80.32,7.17,75.36,7.17Zm34.74,0c-4.61,0-9.21,0-13.81,0-1.41,0-2,.34-1.93,1.85q.12,9,0,18c0,1.39.42,1.78,1.78,1.77q13.71-.07,27.41,0c1.42,0,1.92-.33,1.9-1.84q-.12-9,0-18c0-1.38-.4-1.79-1.77-1.77C119.16,7.22,114.63,7.17,110.1,7.17ZM41.69,28.74c4.26,0,8.51,0,12.77,0,1.25,0,1.72-.36,1.71-1.66q-.08-9.21,0-18.42c0-1.21-.46-1.53-1.61-1.53q-12.77.06-25.54,0c-1.15,0-1.58.33-1.57,1.54q.07,9.21,0,18.42c0,1.32.45,1.66,1.69,1.64C33.32,28.7,37.5,28.74,41.69,28.74Zm100.44-2.41c4.25,0,8.5,0,12.75,0,1.12,0,1.64-.21,1.59-1.47-.09-2.3,0-4.6,0-6.9a3.06,3.06,0,0,0-3.12-3.22c-8,0-16,0-24,0-1.08,0-1.47.4-1.45,1.47.05,2.86.07,5.72,0,8.57,0,1.21.41,1.54,1.57,1.52C133.63,26.3,137.88,26.33,142.13,26.33ZM20.33,21.65c0-2.71,0-5.43,0-8.15,0-1-.19-1.52-1.36-1.5-2.79.07-5.57.05-8.36,0A1.46,1.46,0,0,0,9,13.21a67.28,67.28,0,0,0-2.89,16.4c-.06,1.09.25,1.48,1.37,1.47,3.83-.06,7.67-.06,11.5,0,1.13,0,1.42-.42,1.4-1.47C20.29,27,20.33,24.3,20.33,21.65ZM141.23,12c3.76,0,7.52,0,11.28,0,1.24,0,2.26,0,2-1.72-.18-1.44.32-3.22-2.15-3.2q-11.49.11-23,.09C127,7.2,128,8.9,127.84,10s0,2.1,1.69,2.05C133.43,11.94,137.33,12,141.23,12Z"/><path class="cls-1" d="M125.43,55.14a10.18,10.18,0,1,1-10-10.28A10.26,10.26,0,0,1,125.43,55.14Zm-10.24,7a7.05,7.05,0,0,0,.23-14.1,7.05,7.05,0,1,0-.23,14.1Z"/><path class="cls-1" d="M25.79,55.07A10.18,10.18,0,1,1,36.07,65.25,10.2,10.2,0,0,1,25.79,55.07ZM43,55.15A7,7,0,0,0,36.09,48,7.06,7.06,0,1,0,43,55.15Z"/></g></g></g></svg>