<svg xmlns="http://www.w3.org/2000/svg" xmlns:xlink="http://www.w3.org/1999/xlink" viewBox="0 0 1947 1557"><defs><style>.cls-1{fill:none;}.cls-2{fill:#1d1d1b;}.cls-3{fill:#aad88d;}.cls-4,.cls-5{opacity:0.46;}.cls-4{fill:url(#_6_dpi_10_);}.cls-5,.cls-6{fill:#a5e3f5;}.cls-11,.cls-7{fill:#fff;}.cls-8{fill:#4cc8ec;}.cls-9{fill:#214d3d;}.cls-10{fill:#699673;}.cls-11{font-size:58.09px;font-family:HelveticaNeue-Medium, Helvetica Neue;font-weight:500;}.cls-12{font-size:29px;fill:#304e79;stroke:#304e79;stroke-miterlimit:10;letter-spacing:0.01em;}.cls-13{letter-spacing:0em;}.cls-14{letter-spacing:0.02em;}</style><pattern id="_6_dpi_10_" data-name="6 dpi 10%" width="48" height="48" patternTransform="translate(483 924)" patternUnits="userSpaceOnUse" viewBox="0 0 48 48"><rect class="cls-1" width="48" height="48"/><circle class="cls-2" cx="24" cy="48" r="1.2"/><circle class="cls-2" cx="48" cy="48" r="1.2"/><circle class="cls-2" cx="24" cy="24" r="1.2"/><circle class="cls-2" cx="48" cy="24" r="1.2"/><circle class="cls-2" cx="36" cy="36" r="1.2"/><circle class="cls-2" cx="12" cy="36" r="1.2"/><circle class="cls-2" cx="36" cy="12" r="1.2"/><circle class="cls-2" cx="12" cy="12" r="1.2"/><circle class="cls-2" cy="48" r="1.2"/><circle class="cls-2" cy="24" r="1.2" transform="translate(-23.69 20.16) rotate(-80.78)"/><circle class="cls-2" cx="24" r="1.2"/><circle class="cls-2" cx="48" r="1.2"/><circle class="cls-2" r="1.2" transform="translate(0 0) rotate(-80.78)"/></pattern></defs><title>zurich_map_kreis</title><g id="Background"><circle class="cls-3" cx="973.5" cy="778.5" r="778.5"/><circle class="cls-4" cx="973.5" cy="778.5" r="778.5"/></g><g id="Wasser"><path class="cls-5" d="M630.49,814.46l-1,.11c-78.47,8-186.78,17.76-281.8,27.23v-49c95.06-9.16,208.54-19.74,285.63-33.93C634.2,775.84,631.92,801.06,630.49,814.46ZM749,796.71a88.4,88.4,0,0,0-11.49,3.88c-6,2.63-38.79,6.73-86.15,11.71,1-14.8-1-40.74-2.41-56.46,29.56-6.06,52.28-12.76,64.32-20.25,4.66-2.91,16.87-5.79,34-8.5l2.71,7.09S758.47,763,749,796.71Zm137.34-19.79c-42.76,3.91-79.19,9.08-109,14.76,3.22-12.39,2.32-39.26-3.76-68.22,32.43-3.92,73.59-7.3,113.8-9.67C892.26,730.75,891.9,768.56,886.36,776.92Zm236.17,3.3c-42-4.57-74.75-8.7-81.81-9.62-20.46-2.66-83.09,0-146.77,5.65,3.09-8.7,12.82-39.86,2.77-63,63.09-3.47,122-4.3,138.63-.55,26.05,5.87,63.64,10.46,94.84,13.89C1129.77,738.71,1128.2,760,1122.53,780.22Zm239.75,11.37c-6.48.52-14,1.23-22.76,2-41.41,3.61-134.48-4.57-206.09-12.2,3.57-12.45,9.07-34.21,10-53.35,15,1.6,27.58,2.9,35.21,3.9,20.88,2.75,117.87.49,189.12-24.35-1,20.92,6,47.25-9.22,84Z"/><path class="cls-6" d="M773.63,723.46c6.08,29,7,55.83,3.76,68.22,29.78-5.68,66.21-10.85,109-14.76,5.54-8.36,5.9-46.17,1.07-63.13C847.22,716.16,806.06,719.54,773.63,723.46Z"/><path class="cls-6" d="M896.72,713.27c10,23.12.32,54.28-2.77,63,63.68-5.6,126.31-8.31,146.77-5.65,7.06.92,39.78,5,81.81,9.62,5.67-20.23,7.24-41.51,7.66-53.61-31.2-3.43-68.79-8-94.84-13.89C1018.69,709,959.81,709.8,896.72,713.27Z"/><path class="cls-6" d="M1367.8,707.59c-71.25,24.84-168.24,27.1-189.12,24.35-7.63-1-20.21-2.3-35.21-3.9-1,19.14-6.47,40.9-10,53.35,71.61,7.63,164.68,15.81,206.09,12.2,8.76-.77,16.28-1.48,22.76-2h-3.7C1373.82,754.84,1366.85,728.51,1367.8,707.59Z"/><path class="cls-6" d="M1721.14,549a8.2,8.2,0,0,0-11.56-5.76s-234,100.81-277.25,126a135.69,135.69,0,0,0-24.26,18.69c-3.89,3.89-7,11.57-6.8,17.07l2.57,94.07a128.72,128.72,0,0,0,2.37,19.77s30.86,143.68,50.48,178c14,24.45,233.15,79.53,233.15,79.53a10.63,10.63,0,0,0,12.61-7.13s55.25-181.5,55.25-286.2C1757.7,697.94,1721.14,549,1721.14,549Z"/><path class="cls-6" d="M747.26,727.09c-17.1,2.71-29.31,5.59-34,8.5-12,7.49-34.76,14.19-64.32,20.25,1.46,15.72,3.46,41.66,2.41,56.46,47.36-5,80.13-9.08,86.15-11.71A88.4,88.4,0,0,1,749,796.71c9.45-33.68,1-62.53,1-62.53Z"/><path class="cls-6" d="M338.56,793.69c-56.66,5.47-106,10.45-135.86,15.4v30q.66,9.24,1.53,18.41c35.66-4.58,82.8-9.64,134.33-14.81Z"/><path class="cls-6" d="M347.65,792.82v49c95-9.47,203.33-19.26,281.8-27.23l1-.11c1.43-13.4,3.71-38.62,2.79-55.57C556.19,773.08,442.71,783.66,347.65,792.82Z"/><polygon class="cls-7" points="1545.97 918.72 1554.48 909.15 1565.12 909.15 1566.19 899.57 1622.58 899.57 1632.15 899.57 1632.15 918.72 1632.15 928.3 1545.97 925.11 1545.97 918.72"/><path class="cls-8" d="M1637.73,929.39a5.54,5.54,0,0,0,.48-2.69c0-3.15,0-6.29,0-9.44,0-.83,0-1.66,0-2.48,0-.5-.14-.69-.66-.68-1.32,0-2.64,0-4,0-.66,0-.67,0-.67-.69v-14c0-.7,0-.71-.7-.71h-7.67c-.67,0-.67,0-.67-.68,0-2.9,0-5.79,0-8.68,0-.44-.11-.6-.56-.59q-3.88,0-7.77,0c-.52,0-.66.19-.66.68,0,2.85,0,5.69,0,8.53,0,.72,0,.72-.74.72H1566c-.74,0-.74,0-.74.73,0,2.15,0,4.3,0,6.45,0,1,0,1-1,1-2.69,0-5.38,0-8.07,0a2,2,0,0,0-1.77.85c-1.2,1.55-2.32,3.16-3.62,4.63-.33.38-.59.82-.89,1.23a1.4,1.4,0,0,1-1.27.59h-19.85c-.22,0-.59-.12-.63.11s.35.29.57.37a48.67,48.67,0,0,1,8.81,4.11,27.14,27.14,0,0,1,7.25,6.12,7.3,7.3,0,0,1,1.27,2.3,17.84,17.84,0,0,0,1.11,2.72.52.52,0,0,1,.07.41,48.85,48.85,0,0,0-24.78.32l0,.15,1.26.56c1.84.77,1.84.76,3.78.33a33.93,33.93,0,0,1,9.41-1,47.61,47.61,0,0,1,8.2,1.3,80.83,80.83,0,0,0,12.86,2,66.87,66.87,0,0,0,12.25-.3c3.64-.4,7.21-1.16,10.78-1.91a53.71,53.71,0,0,1,7.69-1,49.05,49.05,0,0,1,12.38,1.15c3.39.65,6.77,1.36,10.2,1.76a66.41,66.41,0,0,0,9.87.38,93.72,93.72,0,0,0,15.18-2.32,46,46,0,0,1,9.49-1.15,37,37,0,0,1,8.25,1,5.61,5.61,0,0,0,4.37-.48,6.11,6.11,0,0,1,.74-.32c.09,0,.22-.06.2-.19s-.14-.14-.24-.16a70,70,0,0,0-9.1-1.44,54.82,54.82,0,0,0-5.73-.16,48.69,48.69,0,0,0-5.66.45C1638.38,929.35,1638.09,929.36,1637.73,929.39Zm-10.47-12.78c.62,0,1.25,0,1.87,0,.33,0,.5.11.49.47,0,.52,0,1,0,1.57,0,.32-.12.44-.44.44h-3.7c-.33,0-.51-.11-.5-.46,0-.53,0-1,0-1.57,0-.32.13-.45.46-.45C1626,916.62,1626.65,916.61,1627.26,916.61Zm0-4.63c-.61,0-1.22,0-1.83,0-.33,0-.46-.15-.45-.46s0-.91,0-1.37.13-.49.48-.49H1629c.33,0,.41.15.4.44a12.35,12.35,0,0,0,0,1.36c0,.46-.17.54-.57.52S1627.76,912,1627.23,912Zm-72.81,7h-1.67c-.32,0-.47-.12-.47-.45,0-.52,0-1,0-1.57,0-.28.12-.39.4-.39h3.3c.29,0,.44.11.43.41,0,.56,0,1.12,0,1.68,0,.23-.08.33-.33.33Zm15.37-2.4h1.57c.25,0,.38.1.37.36v1.68c0,.26-.14.36-.38.36h-3.14c-.29,0-.39-.16-.38-.42V917c0-.31.15-.41.44-.4Zm41.32,0h1.53c.29,0,.44.09.43.41,0,.52,0,1.05,0,1.57,0,.31-.14.42-.43.42h-3.05c-.33,0-.44-.15-.43-.47,0-.49,0-1,0-1.47s.14-.47.48-.46S1610.62,916.61,1611.11,916.61Zm-31.09,0h1.52c.33,0,.46.14.45.46,0,.5,0,1,0,1.52,0,.31-.13.42-.43.42h-3c-.33,0-.45-.15-.45-.46,0-.51,0-1,0-1.52,0-.31.12-.43.42-.42Zm25.77,2.41v0c-.49,0-1,0-1.47,0-.32,0-.44-.08-.43-.39,0-.54,0-1.08,0-1.62,0-.34.15-.44.46-.44h3c.33,0,.44.13.43.45,0,.49,0,1,0,1.47s-.17.51-.52.5Zm10.59,0h-1.52c-.3,0-.43-.13-.43-.43,0-.51,0-1,0-1.52,0-.32.11-.46.45-.45h3c.29,0,.43.09.42.41,0,.51,0,1,0,1.52s-.16.48-.49.47Zm-15.82,0h0c-.49,0-1,0-1.47,0s-.51-.14-.49-.51,0-.91,0-1.37c0-.31.12-.44.44-.47,1-.09,2.06,0,3.09,0,.29,0,.38.14.38.41,0,.52,0,1,0,1.57,0,.3-.13.42-.43.42Zm-15.3-2.4c.51,0,1,0,1.52,0,.3,0,.43.13.42.43,0,.52,0,1,0,1.57,0,.29-.14.42-.43.42h-3c-.3,0-.42-.14-.42-.44,0-.5,0-1,0-1.51s.15-.48.49-.47S1584.79,916.61,1585.26,916.61Zm36.39,2.41h-1.47c-.3,0-.48-.1-.48-.43,0-.53,0-1.05,0-1.57,0-.31.14-.42.44-.41h3c.3,0,.43.11.43.42,0,.5,0,1,0,1.52,0,.35-.16.48-.49.47Zm-15.81-7h-1.57c-.28,0-.4-.12-.39-.39,0-.51,0-1,0-1.52,0-.28.13-.39.4-.39h3.09c.3,0,.42.12.42.42,0,.48,0,.95,0,1.42s-.14.48-.48.46Zm-5.25,0h-1.52c-.32,0-.48-.09-.47-.43s0-1,0-1.47c0-.31.13-.43.42-.42h3c.33,0,.45.14.44.46s0,1,0,1.42-.14.45-.46.44Zm-20.54,0h-1.52c-.33,0-.46-.12-.45-.45s0-.94,0-1.41c0-.29.09-.45.4-.44h3.09c.3,0,.42.12.42.42,0,.48,0,.95,0,1.42s-.15.48-.49.46Zm36.35,0h-1.52c-.29,0-.45-.09-.45-.41,0-.5,0-1,0-1.52,0-.28.14-.39.41-.39h3.09c.28,0,.41.13.4.4,0,.49,0,1,0,1.47,0,.33-.12.45-.45.44C1617.38,912,1616.89,912,1616.4,912Zm-5.28,0h-1.57c-.27,0-.39-.12-.39-.4,0-.5,0-1,0-1.51,0-.28.12-.4.4-.4q1.51,0,3,0c.32,0,.47.15.46.46,0,.47,0,1,0,1.42s-.14.44-.45.43Zm10.52,0h-1.52c-.26,0-.41-.09-.41-.38v-1.52c0-.27.12-.4.4-.4,1,0,2,0,3,0,.32,0,.47.14.46.46,0,.47,0,1,0,1.42,0,.31-.12.43-.41.42Zm-51.82,0h-1.57c-.3,0-.43-.12-.43-.42q0-.74,0-1.47c0-.3.14-.43.43-.42h3a.38.38,0,0,1,.43.43c0,.52,0,1,0,1.57,0,.26-.12.32-.34.32Zm15.46,0h-1.51c-.28,0-.41-.11-.4-.39,0-.51,0-1,0-1.52a.35.35,0,0,1,.4-.4c1,0,2,0,3,0,.27,0,.41.12.41.39,0,.51,0,1,0,1.52,0,.27-.12.4-.4.4Zm-10.42,7h0c-.45,0-.91,0-1.36,0-.28,0-.42,0-.41-.35,0-.55,0-1.11,0-1.67,0-.31.15-.41.44-.4h2.78c.32,0,.41.14.41.43,0,.5,0,1,0,1.52s-.16.47-.49.46Zm15.58,0h0c-.48,0-1,0-1.46,0-.24,0-.34-.08-.34-.32V917c0-.27.11-.4.39-.39h2.83c.28,0,.39.14.38.41v1.62c0,.31-.13.4-.43.39C1591.35,919,1590.9,919,1590.44,919Zm5,0h-1.37c-.32,0-.45-.14-.44-.46,0-.5,0-1,0-1.51,0-.33.14-.45.46-.45h2.73c.3,0,.41.14.41.43,0,.52,0,1,0,1.57,0,.3-.13.42-.43.42Zm-35.84,0c-.46,0-.91,0-1.37,0-.29,0-.44-.07-.44-.39,0-.59,0-1.18,0-1.77,0-.25.16-.26.34-.27H1561c.26,0,.37.12.37.37,0,.56,0,1.12,0,1.67,0,.32-.14.4-.44.39C1560.51,919,1560.05,919,1559.6,919Zm5.11,0h-1.42c-.28,0-.45-.1-.45-.41V917c0-.25.1-.38.36-.38h2.89c.24,0,.32.12.32.35,0,.58,0,1.15,0,1.73,0,.25-.09.36-.36.35C1565.59,919,1565.15,919,1564.71,919Zm-5.11-7c-.46,0-.92,0-1.37,0s-.46-.13-.45-.46q0-.74,0-1.47c0-.3.1-.41.42-.41.94,0,1.89,0,2.84,0,.27,0,.36.09.36.35,0,.52,0,1,0,1.57,0,.31-.14.42-.43.41Zm15.32,0h-1.42c-.24,0-.4-.07-.4-.34,0-.54,0-1.08,0-1.62a.3.3,0,0,1,.35-.34h2.89a.32.32,0,0,1,.37.37c0,.51,0,1,0,1.52,0,.32-.14.42-.43.41Zm-10.25,0h-1.37c-.32,0-.48-.1-.47-.43s0-.95,0-1.42.14-.46.46-.46H1566c.3,0,.44.12.43.42,0,.49,0,1,0,1.48,0,.3-.12.42-.42.41Zm30.78-2.31h1.31c.35,0,.48.14.47.48s0,.91,0,1.36-.15.48-.49.48h-2.68c-.33,0-.44-.14-.43-.46s0-.94,0-1.41.13-.46.45-.45Zm-5.07,0h0c.48,0,.95,0,1.42,0s.45.12.44.44c0,.49,0,1,0,1.47,0,.31-.09.42-.4.42h-2.73c-.32,0-.47-.1-.46-.44,0-.51,0-1,0-1.52,0-.27.07-.4.38-.38S1589.93,909.66,1590.38,909.66Zm20.69-7.8h1.56c.29,0,.44.1.44.41a10.28,10.28,0,0,0,0,1.11c0,.3-.12.45-.41.45h-3.14c-.25,0-.37-.11-.36-.36s0-.78,0-1.17.12-.46.45-.45Zm-31,2h-1.52c-.31,0-.43-.13-.42-.43a10.46,10.46,0,0,0,0-1.12c0-.32.12-.45.45-.45h2.94c.28,0,.42.1.45.41s0,.78,0,1.16-.13.43-.43.43C1581,903.84,1580.52,903.85,1580,903.85Zm-10.29,0h-.5c-1.67-.05-1.39.34-1.42-1.51,0-.34.13-.49.48-.48h1.92c1.7,0,1.42-.33,1.44,1.55v.05c0,.27-.11.4-.39.39Zm46.64,0h-1.52c-.3,0-.44-.13-.43-.42s0-.74,0-1.12.14-.45.46-.44h2c1.64,0,1.39-.27,1.42,1.47v.1c0,.3-.14.42-.43.42C1617.36,903.83,1616.87,903.84,1616.38,903.84Zm5.3,0h-.56c-1.67-.05-1.37.35-1.41-1.51,0-.35.13-.48.48-.47h1.93c1.65,0,1.41-.32,1.44,1.5,0,.39-.16.5-.52.48S1622.13,903.85,1621.68,903.85Zm-36.42,0v0a3.4,3.4,0,0,1-.45,0c-1.74-.09-1.43.36-1.46-1.51,0-.38.17-.5.52-.49h1.87c1.73,0,1.43-.33,1.46,1.57,0,.3-.12.43-.43.42Zm41.75,0v0h-1.32c-.74,0-.75,0-.73-.7a4.84,4.84,0,0,0,0-.76c0-.35.1-.48.46-.48.71,0,1.42,0,2.13,0,1.7,0,1.4-.34,1.43,1.6,0,.29-.14.37-.42.36C1628,903.79,1627.51,903.81,1627,903.81Zm-26.36,0h-1.56c-.34,0-.51-.11-.49-.47a8.51,8.51,0,0,0,0-1c0-.32.12-.46.45-.45h3c.29,0,.44.1.43.41s0,.78,0,1.17-.13.37-.4.36C1601.63,903.78,1601.14,903.79,1600.65,903.79Zm5.26,0h-.65c-1.62,0-1.35.31-1.38-1.51,0-.31.14-.42.43-.42h3c.29,0,.45.1.44.41s0,.78,0,1.17-.13.37-.4.36C1606.9,903.78,1606.4,903.79,1605.91,903.79Zm-10.45.06h-.41c-1.66,0-1.39.29-1.43-1.45,0-.44.17-.56.57-.54s1,0,1.57,0c1.76,0,1.44-.33,1.48,1.56,0,.34-.14.45-.46.44S1595.9,903.85,1595.46,903.85Zm-5-.06H1590c-1.45,0-1.45,0-1.38-1.45,0-.35.14-.49.49-.49.57,0,1.15,0,1.72,0,1.46,0,1.45,0,1.42,1.45,0,.36-.08.52-.48.49S1590.89,903.79,1590.45,903.79Zm-15.57-1.92h.45c1.64,0,1.36-.3,1.39,1.44,0,.34-.13.49-.48.48-.59,0-1.18,0-1.77,0-1.58,0-1.35.26-1.36-1.42a.34.34,0,0,1,0-.1c0-.28.13-.39.4-.39Z"/><path class="cls-8" d="M1645.59,933.41a56.46,56.46,0,0,0-11.51,1.36c-2.9.57-5.79,1.22-8.72,1.65a42.87,42.87,0,0,1-14.47-.22c-3.2-.62-6.4-1.24-9.62-1.81a61.89,61.89,0,0,0-8.82-.9,63.73,63.73,0,0,0-16.68,1.8,55.74,55.74,0,0,1-15.65,1.56,59.93,59.93,0,0,1-10.33-1.47q-4-.92-8.07-1.56c-.36-.05-.78.11-1.07-.27-.61.33-1.22,0-1.82,0a48.53,48.53,0,0,0-6,0,51.94,51.94,0,0,0-9.84,1.61c-.13,0-.32,0-.34.19s.2.2.33.26a6.07,6.07,0,0,1,.7.29,4.8,4.8,0,0,0,3.82.41,31.36,31.36,0,0,1,9.15-1,46.5,46.5,0,0,1,9.3,1.43,69.89,69.89,0,0,0,19.16,2,60.89,60.89,0,0,0,6.87-.63c3.75-.51,7.43-1.43,11.15-2.13a42.61,42.61,0,0,1,9.64-.62A65.11,65.11,0,0,1,1603.5,937a71.85,71.85,0,0,0,11.68,1.63,55.19,55.19,0,0,0,8.72-.12c2.81-.3,5.58-.84,8.36-1.35s5.39-1.16,8.12-1.53a38.1,38.1,0,0,1,8.8-.19,43.81,43.81,0,0,1,6.15,1,2.82,2.82,0,0,0,2-.26c.51-.26,1.06-.46,1.58-.7.15-.08.47,0,.4-.33s-.31-.22-.5-.25l-3.25-.55A57.59,57.59,0,0,0,1645.59,933.41Z"/><path class="cls-8" d="M1522.57,939.94a12.57,12.57,0,0,0,3.21,1.18,3.88,3.88,0,0,0,1.4-.18,32,32,0,0,1,9.54-1.06,41.3,41.3,0,0,1,7.66,1.14,90.28,90.28,0,0,0,11.64,2,70.68,70.68,0,0,0,10.89.18,98.82,98.82,0,0,0,14.3-2.3,43.81,43.81,0,0,1,9.81-1.07,48,48,0,0,1,8.1.94c3.53.65,7,1.45,10.58,1.94,2.07.28,4.16.46,6.26.57a55.12,55.12,0,0,0,7-.12,64.65,64.65,0,0,0,6.78-1c3.39-.63,6.77-1.33,10.16-1.92a36.82,36.82,0,0,1,8.65-.3,43.55,43.55,0,0,1,6.91,1.07A2.28,2.28,0,0,0,1657,941l2-.84c.1,0,.27,0,.24-.21s-.18-.12-.29-.15a56.31,56.31,0,0,0-5.92-1.17,58.36,58.36,0,0,0-7.12-.53,57,57,0,0,0-12.28,1.37c-1.6.34-3.2.7-4.81,1a53.26,53.26,0,0,1-7.87,1,55.61,55.61,0,0,1-15.68-1.65,63.56,63.56,0,0,0-9.81-1.53c-1.58-.13-3.17-.19-4.76-.2a61.25,61.25,0,0,0-13.43,1.52,77.32,77.32,0,0,1-10.89,1.81,51.24,51.24,0,0,1-9.67-.24c-4-.46-7.92-1.44-11.86-2.21a46.58,46.58,0,0,0-9.27-.94A51,51,0,0,0,1523,939.7.62.62,0,0,0,1522.57,939.94Z"/><path class="cls-8" d="M1566.78,875.16c.1.3.4.39.61.55a51.62,51.62,0,0,0,8.09,4.83,11.92,11.92,0,0,0,5.31.87c1,0,2.09-.07,3.14-.11,4.42-.19,8.85-.57,13.28-.42a94,94,0,0,1,12,.9,11.6,11.6,0,0,1,7,3.8,3.6,3.6,0,0,0,3.3,1l.1,0c1-.15,1.1-.27.87-1.3a7.07,7.07,0,0,0-3.16-4.25,19.77,19.77,0,0,0-7.31-2.84,57.81,57.81,0,0,0-14.67-1.24c-2.07.1-4.14.33-6.21.48a72.11,72.11,0,0,1-8.82.1,50.31,50.31,0,0,1-10.91-1.64c-.73-.2-1.44-.48-2.17-.72C1567.1,875.15,1567,875,1566.78,875.16Z"/></g><g id="Baum"><path class="cls-9" d="M1108.07,1374.44h17.13l-13.87-14.68h10.2l-12.64-14.68h8.56l-11.83-13.87-10.6,13.87h8.16l-12.64,14.68h9.38l-12.24,14.68h20.39Z"/><rect class="cls-9" x="1103.59" y="1374.45" width="4.49" height="8.55"/><path class="cls-10" d="M1127.44,1350.64l-.07.09C1127.49,1350.62,1127.52,1350.57,1127.44,1350.64Z"/><path class="cls-10" d="M1132,1350l1.6-.4h0a8.08,8.08,0,0,1-3.78-.52l0,.07C1130,1350,1132,1350,1132,1350Z"/><path class="cls-10" d="M1137,1352l.73.73c.08-.07.17-.13.24-.2a7.51,7.51,0,0,1-1.77-3.8c-.19.09-.33.16-.47.21a1,1,0,0,0-.38.22l.65-.16Z"/><path class="cls-10" d="M1128.56,1349.14l-1,1.29,1.06-1.09Z"/><path class="cls-10" d="M1153.84,1338.11a1.3,1.3,0,0,0-.15-.23c-.54-.47-.43-1-.28-1.62a7,7,0,0,0-3.91-8c-.62-.28-1.3-.4-2-.62a.72.72,0,0,1-.41-.31,7,7,0,0,0-2.4-3,6.48,6.48,0,0,0-3.23-1.26,7,7,0,0,0-4.52.91c-1.77-2.68-4.21-4-7.44-3.49s-5.08,2.66-5.81,5.77a19.79,19.79,0,0,0-2,.13,7,7,0,0,0-5.89,7.1.75.75,0,0,1-.36.73,6.54,6.54,0,0,0-2.25,2.69,6.88,6.88,0,0,0,.45,6.85,15.56,15.56,0,0,0,1.23,1.48.89.89,0,0,1,.24.52,7.1,7.1,0,0,0,7.91,7.13,11.87,11.87,0,0,0,2.15-.6.64.64,0,0,1,.17,0,.73.73,0,0,1,.4.09c.58-.56,1.35-1.28,1.63-1.57l.07-.09h0c-.14.11,0,0,.16-.21l1-1.29.1.2.34-.34s.64-.65.82.07a8.08,8.08,0,0,0,3.78.52h0l1.75-.44a1,1,0,0,1,.38-.22c.14,0,.28-.12.47-.21a7.51,7.51,0,0,0,1.77,3.8c-.07.07-.16.13-.24.2l1.32,1.32.25-.24a15.3,15.3,0,0,0,2.1.83,7.1,7.1,0,0,0,8.87-5.79.66.66,0,0,1,.3-.42,7.11,7.11,0,0,0,3.27-10.32Z"/><path class="cls-10" d="M1127.44,1350.64h0l.16-.21C1127.4,1350.64,1127.3,1350.75,1127.44,1350.64Z"/><path class="cls-10" d="M1135.45,1354.17c-.49.17-.86,0-.9-.53a9,9,0,0,1,.08-1.87c.09-.68.3-1.33.42-2a1,1,0,0,1,.3-.61l-1.75.44a4.37,4.37,0,0,1-.11.62,16.77,16.77,0,0,1-.63,2c-.28.67-.8.72-1.23.13-.6-.85-1.13-1.74-1.68-2.63-.14-.23-.24-.49-.37-.74l.24.08c-.18-.72-.82-.07-.82-.07l-.34.34c.42.88.83,1.75,1.29,2.69a4.9,4.9,0,0,1-2.77-1l.19-.26c-.28.29-1,1-1.63,1.57l0,0c1,.55,1.92,1.09,2.89,1.61a1.15,1.15,0,0,0,.63.14c.42,0,.45.19.46.51.06,1.71.15,3.42.22,5.14a17.44,17.44,0,0,1-.44,4.44l-1,4.3a2.48,2.48,0,0,0,0,.27h8.5c-.39-2-.8-3.88-1.17-5.83a17.46,17.46,0,0,1,.17-4.84,3.65,3.65,0,0,1,1.38-2.5c.56-.5,1.09-1,1.63-1.51l-1.32-1.32A6.94,6.94,0,0,1,1135.45,1354.17Z"/><path class="cls-9" d="M1139.07,1302.44h17.13l-13.87-14.68h10.2l-12.64-14.68h8.56l-11.83-13.87-10.6,13.87h8.16l-12.64,14.68h9.38l-12.24,14.68h20.39Z"/><rect class="cls-9" x="1134.59" y="1302.45" width="4.49" height="8.55"/><path class="cls-10" d="M1158.44,1278.64l-.07.09C1158.49,1278.62,1158.52,1278.57,1158.44,1278.64Z"/><path class="cls-10" d="M1163,1278l1.6-.4h0a8.08,8.08,0,0,1-3.78-.52l0,.07C1161,1278,1163,1278,1163,1278Z"/><path class="cls-10" d="M1168,1280l.73.73c.08-.07.17-.13.24-.2a7.51,7.51,0,0,1-1.77-3.8c-.19.09-.33.16-.47.21a1,1,0,0,0-.38.22l.65-.16Z"/><path class="cls-10" d="M1159.56,1277.14l-1,1.29,1.06-1.09Z"/><path class="cls-10" d="M1184.84,1266.11a1.3,1.3,0,0,0-.15-.23c-.54-.47-.43-1-.28-1.62a7,7,0,0,0-3.91-8c-.62-.28-1.3-.4-2-.62a.72.72,0,0,1-.41-.31,7,7,0,0,0-2.4-3,6.48,6.48,0,0,0-3.23-1.26,7,7,0,0,0-4.52.91c-1.77-2.68-4.21-4-7.44-3.49s-5.08,2.66-5.81,5.77a19.79,19.79,0,0,0-2,.13,7,7,0,0,0-5.89,7.1.75.75,0,0,1-.36.73,6.54,6.54,0,0,0-2.25,2.69,6.88,6.88,0,0,0,.45,6.85,15.56,15.56,0,0,0,1.23,1.48.89.89,0,0,1,.24.52,7.1,7.1,0,0,0,7.91,7.13,11.87,11.87,0,0,0,2.15-.6.64.64,0,0,1,.17,0,.73.73,0,0,1,.4.09c.58-.56,1.35-1.28,1.63-1.57l.07-.09h0c-.14.11,0,0,.16-.21l1-1.29.1.2.34-.34s.64-.65.82.07a8.08,8.08,0,0,0,3.78.52h0l1.75-.44a1,1,0,0,1,.38-.22c.14,0,.28-.12.47-.21a7.51,7.51,0,0,0,1.77,3.8c-.07.07-.16.13-.24.2l1.32,1.32.25-.24a15.3,15.3,0,0,0,2.1.83,7.1,7.1,0,0,0,8.87-5.79.66.66,0,0,1,.3-.42,7.11,7.11,0,0,0,3.27-10.32Z"/><path class="cls-10" d="M1158.44,1278.64h0l.16-.21C1158.4,1278.64,1158.3,1278.75,1158.44,1278.64Z"/><path class="cls-10" d="M1166.45,1282.17c-.49.17-.86,0-.9-.53a9,9,0,0,1,.08-1.87c.09-.68.3-1.33.42-2a1,1,0,0,1,.3-.61l-1.75.44a4.37,4.37,0,0,1-.11.62,16.77,16.77,0,0,1-.63,2c-.28.67-.8.72-1.23.13-.6-.85-1.13-1.74-1.68-2.63-.14-.23-.24-.49-.37-.74l.24.08c-.18-.72-.82-.07-.82-.07l-.34.34c.42.88.83,1.75,1.29,2.69a4.9,4.9,0,0,1-2.77-1l.19-.26c-.28.29-1,1-1.63,1.57l0,0c1,.55,1.92,1.09,2.89,1.61a1.15,1.15,0,0,0,.63.14c.42,0,.45.19.46.51.06,1.71.15,3.42.22,5.14a17.44,17.44,0,0,1-.44,4.44l-1,4.3a2.48,2.48,0,0,0,0,.27h8.5c-.39-2-.8-3.88-1.17-5.83a17.46,17.46,0,0,1,.17-4.84,3.65,3.65,0,0,1,1.38-2.5c.56-.5,1.09-1,1.63-1.51l-1.32-1.32A6.94,6.94,0,0,1,1166.45,1282.17Z"/><path class="cls-9" d="M1081.07,1320.44h17.13l-13.87-14.68h10.2l-12.64-14.68h8.56l-11.83-13.87-10.6,13.87h8.16l-12.64,14.68h9.38l-12.24,14.68h20.39Z"/><rect class="cls-9" x="1076.59" y="1320.45" width="4.49" height="8.55"/><path class="cls-10" d="M1100.44,1296.64l-.07.09C1100.49,1296.62,1100.52,1296.57,1100.44,1296.64Z"/><path class="cls-10" d="M1105,1296l1.6-.4h0a8.08,8.08,0,0,1-3.78-.52l0,.07C1103,1296,1105,1296,1105,1296Z"/><path class="cls-10" d="M1110,1298l.73.73c.08-.07.17-.13.24-.2a7.51,7.51,0,0,1-1.77-3.8c-.19.09-.33.16-.47.21a1,1,0,0,0-.38.22l.65-.16Z"/><path class="cls-10" d="M1101.56,1295.14l-1,1.29,1.06-1.09Z"/><path class="cls-10" d="M1126.84,1284.11a1.3,1.3,0,0,0-.15-.23c-.54-.47-.43-1-.28-1.62a7,7,0,0,0-3.91-8c-.62-.28-1.3-.4-2-.62a.72.72,0,0,1-.41-.31,7,7,0,0,0-2.4-3,6.48,6.48,0,0,0-3.23-1.26,7,7,0,0,0-4.52.91c-1.77-2.68-4.21-4-7.44-3.49s-5.08,2.66-5.81,5.77a19.79,19.79,0,0,0-2,.13,7,7,0,0,0-5.89,7.1.75.75,0,0,1-.36.73,6.54,6.54,0,0,0-2.25,2.69,6.88,6.88,0,0,0,.45,6.85,15.56,15.56,0,0,0,1.23,1.48.89.89,0,0,1,.24.52,7.1,7.1,0,0,0,7.91,7.13,11.87,11.87,0,0,0,2.15-.6.64.64,0,0,1,.17,0,.73.73,0,0,1,.4.09c.58-.56,1.35-1.28,1.63-1.57l.07-.09h0c-.14.11,0,0,.16-.21l1-1.29.1.2.34-.34s.64-.65.82.07a8.08,8.08,0,0,0,3.78.52h0l1.75-.44a1,1,0,0,1,.38-.22c.14,0,.28-.12.47-.21a7.51,7.51,0,0,0,1.77,3.8c-.07.07-.16.13-.24.2l1.32,1.32.25-.24a15.3,15.3,0,0,0,2.1.83,7.1,7.1,0,0,0,8.87-5.79.66.66,0,0,1,.3-.42,7.11,7.11,0,0,0,3.27-10.32Z"/><path class="cls-10" d="M1100.44,1296.64h0l.16-.21C1100.4,1296.64,1100.3,1296.75,1100.44,1296.64Z"/><path class="cls-10" d="M1108.45,1300.17c-.49.17-.86,0-.9-.53a9,9,0,0,1,.08-1.87c.09-.68.3-1.33.42-2a1,1,0,0,1,.3-.61l-1.75.44a4.37,4.37,0,0,1-.11.62,16.77,16.77,0,0,1-.63,2c-.28.67-.8.72-1.23.13-.6-.85-1.13-1.74-1.68-2.63-.14-.23-.24-.49-.37-.74l.24.08c-.18-.72-.82-.07-.82-.07l-.34.34c.42.88.83,1.75,1.29,2.69a4.9,4.9,0,0,1-2.77-1l.19-.26c-.28.29-1,1-1.63,1.57l0,0c1,.55,1.92,1.09,2.89,1.61a1.15,1.15,0,0,0,.63.14c.42,0,.45.19.46.51.06,1.71.15,3.42.22,5.14a17.44,17.44,0,0,1-.44,4.44l-1,4.3a2.48,2.48,0,0,0,0,.27h8.5c-.39-2-.8-3.88-1.17-5.83a17.46,17.46,0,0,1,.17-4.84,3.65,3.65,0,0,1,1.38-2.5c.56-.5,1.09-1,1.63-1.51l-1.32-1.32A6.94,6.94,0,0,1,1108.45,1300.17Z"/><path class="cls-9" d="M1036.07,1388.44h17.13l-13.87-14.68h10.2l-12.64-14.68h8.56l-11.83-13.87-10.6,13.87h8.16l-12.64,14.68h9.38l-12.24,14.68h20.39Z"/><rect class="cls-9" x="1031.59" y="1388.45" width="4.49" height="8.55"/><path class="cls-10" d="M1055.44,1364.64l-.07.09C1055.49,1364.62,1055.52,1364.57,1055.44,1364.64Z"/><path class="cls-10" d="M1060,1364l1.6-.4h0a8.08,8.08,0,0,1-3.78-.52l0,.07C1058,1364,1060,1364,1060,1364Z"/><path class="cls-10" d="M1065,1366l.73.73c.08-.07.17-.13.24-.2a7.51,7.51,0,0,1-1.77-3.8c-.19.09-.33.16-.47.21a1,1,0,0,0-.38.22l.65-.16Z"/><path class="cls-10" d="M1056.56,1363.14l-1,1.29,1.06-1.09Z"/><path class="cls-10" d="M1081.84,1352.11a1.3,1.3,0,0,0-.15-.23c-.54-.47-.43-1-.28-1.62a7,7,0,0,0-3.91-8c-.62-.28-1.3-.4-2-.62a.72.72,0,0,1-.41-.31,7,7,0,0,0-2.4-3,6.48,6.48,0,0,0-3.23-1.26,7,7,0,0,0-4.52.91c-1.77-2.68-4.21-4-7.44-3.49s-5.08,2.66-5.81,5.77a19.79,19.79,0,0,0-2,.13,7,7,0,0,0-5.89,7.1.75.75,0,0,1-.36.73,6.54,6.54,0,0,0-2.25,2.69,6.88,6.88,0,0,0,.45,6.85,15.56,15.56,0,0,0,1.23,1.48.89.89,0,0,1,.24.52,7.1,7.1,0,0,0,7.91,7.13,11.87,11.87,0,0,0,2.15-.6.64.64,0,0,1,.17,0,.73.73,0,0,1,.4.09c.58-.56,1.35-1.28,1.63-1.57l.07-.09h0c-.14.11,0,0,.16-.21l1-1.29.1.2.34-.34s.64-.65.82.07a8.08,8.08,0,0,0,3.78.52h0l1.75-.44a1,1,0,0,1,.38-.22c.14,0,.28-.12.47-.21a7.51,7.51,0,0,0,1.77,3.8c-.07.07-.16.13-.24.2l1.32,1.32.25-.24a15.3,15.3,0,0,0,2.1.83,7.1,7.1,0,0,0,8.87-5.79.66.66,0,0,1,.3-.42,7.11,7.11,0,0,0,3.27-10.32Z"/><path class="cls-10" d="M1055.44,1364.64h0l.16-.21C1055.4,1364.64,1055.3,1364.75,1055.44,1364.64Z"/><path class="cls-10" d="M1063.45,1368.17c-.49.17-.86,0-.9-.53a9,9,0,0,1,.08-1.87c.09-.68.3-1.33.42-2a1,1,0,0,1,.3-.61l-1.75.44a4.37,4.37,0,0,1-.11.62,16.77,16.77,0,0,1-.63,2c-.28.67-.8.72-1.23.13-.6-.85-1.13-1.74-1.68-2.63-.14-.23-.24-.49-.37-.74l.24.08c-.18-.72-.82-.07-.82-.07l-.34.34c.42.88.83,1.75,1.29,2.69a4.9,4.9,0,0,1-2.77-1l.19-.26c-.28.29-1,1-1.63,1.57l0,0c1,.55,1.92,1.09,2.89,1.61a1.15,1.15,0,0,0,.63.14c.42,0,.45.19.46.51.06,1.71.15,3.42.22,5.14a17.44,17.44,0,0,1-.44,4.44l-1,4.3a2.48,2.48,0,0,0,0,.27h8.5c-.39-2-.8-3.88-1.17-5.83a17.46,17.46,0,0,1,.17-4.84,3.65,3.65,0,0,1,1.38-2.5c.56-.5,1.09-1,1.63-1.51l-1.32-1.32A6.94,6.94,0,0,1,1063.45,1368.17Z"/><path class="cls-9" d="M1034.07,1291.44h17.13l-13.87-14.68h10.2l-12.64-14.68h8.56l-11.83-13.87-10.6,13.87h8.16l-12.64,14.68h9.38l-12.24,14.68h20.39Z"/><rect class="cls-9" x="1029.59" y="1291.45" width="4.49" height="8.55"/><path class="cls-10" d="M1053.44,1267.64l-.07.09C1053.49,1267.62,1053.52,1267.57,1053.44,1267.64Z"/><path class="cls-10" d="M1058,1267l1.6-.4h0a8.08,8.08,0,0,1-3.78-.52l0,.07C1056,1267,1058,1267,1058,1267Z"/><path class="cls-10" d="M1063,1269l.73.73c.08-.07.17-.13.24-.2a7.51,7.51,0,0,1-1.77-3.8c-.19.09-.33.16-.47.21a1,1,0,0,0-.38.22l.65-.16Z"/><path class="cls-10" d="M1054.56,1266.14l-1,1.29,1.06-1.09Z"/><path class="cls-10" d="M1079.84,1255.11a1.3,1.3,0,0,0-.15-.23c-.54-.47-.43-1-.28-1.62a7,7,0,0,0-3.91-8c-.62-.28-1.3-.4-2-.62a.72.72,0,0,1-.41-.31,7,7,0,0,0-2.4-3,6.48,6.48,0,0,0-3.23-1.26,7,7,0,0,0-4.52.91c-1.77-2.68-4.21-4-7.44-3.49s-5.08,2.66-5.81,5.77a19.79,19.79,0,0,0-2,.13,7,7,0,0,0-5.89,7.1.75.75,0,0,1-.36.73,6.54,6.54,0,0,0-2.25,2.69,6.88,6.88,0,0,0,.45,6.85,15.56,15.56,0,0,0,1.23,1.48.89.89,0,0,1,.24.52,7.1,7.1,0,0,0,7.91,7.13,11.87,11.87,0,0,0,2.15-.6.64.64,0,0,1,.17,0,.73.73,0,0,1,.4.09c.58-.56,1.35-1.28,1.63-1.57l.07-.09h0c-.14.11,0,0,.16-.21l1-1.29.1.2.34-.34s.64-.65.82.07a8.08,8.08,0,0,0,3.78.52h0l1.75-.44a1,1,0,0,1,.38-.22c.14,0,.28-.12.47-.21a7.51,7.51,0,0,0,1.77,3.8c-.07.07-.16.13-.24.2l1.32,1.32.25-.24a15.3,15.3,0,0,0,2.1.83,7.1,7.1,0,0,0,8.87-5.79.66.66,0,0,1,.3-.42,7.11,7.11,0,0,0,3.27-10.32Z"/><path class="cls-10" d="M1053.44,1267.64h0l.16-.21C1053.4,1267.64,1053.3,1267.75,1053.44,1267.64Z"/><path class="cls-10" d="M1061.45,1271.17c-.49.17-.86,0-.9-.53a9,9,0,0,1,.08-1.87c.09-.68.3-1.33.42-2a1,1,0,0,1,.3-.61l-1.75.44a4.37,4.37,0,0,1-.11.62,16.77,16.77,0,0,1-.63,2c-.28.67-.8.72-1.23.13-.6-.85-1.13-1.74-1.68-2.63-.14-.23-.24-.49-.37-.74l.24.08c-.18-.72-.82-.07-.82-.07l-.34.34c.42.88.83,1.75,1.29,2.69a4.9,4.9,0,0,1-2.77-1l.19-.26c-.28.29-1,1-1.63,1.57l0,0c1,.55,1.92,1.09,2.89,1.61a1.15,1.15,0,0,0,.63.14c.42,0,.45.19.46.51.06,1.71.15,3.42.22,5.14a17.44,17.44,0,0,1-.44,4.44l-1,4.3a2.48,2.48,0,0,0,0,.27h8.5c-.39-2-.8-3.88-1.17-5.83a17.46,17.46,0,0,1,.17-4.84,3.65,3.65,0,0,1,1.38-2.5c.56-.5,1.09-1,1.63-1.51l-1.32-1.32A6.94,6.94,0,0,1,1061.45,1271.17Z"/><path class="cls-9" d="M1519.07,323.44h17.13l-13.87-14.68h10.2l-12.64-14.68h8.56l-11.83-13.87L1506,294.08h8.16l-12.64,14.68h9.38l-12.24,14.68h20.39Z"/><rect class="cls-9" x="1514.59" y="323.45" width="4.49" height="8.55"/><path class="cls-10" d="M1538.44,299.64l-.07.09C1538.49,299.62,1538.52,299.57,1538.44,299.64Z"/><path class="cls-10" d="M1543,299l1.6-.4h0a8.08,8.08,0,0,1-3.78-.52l0,.07C1541,299,1543,299,1543,299Z"/><path class="cls-10" d="M1548,301l.73.73c.08-.07.17-.13.24-.2a7.51,7.51,0,0,1-1.77-3.8c-.19.09-.33.16-.47.21a1,1,0,0,0-.38.22l.65-.16Z"/><path class="cls-10" d="M1539.56,298.14c-.32.44-.64.86-1,1.29l1.06-1.09Z"/><path class="cls-10" d="M1564.84,287.11a1.3,1.3,0,0,0-.15-.23c-.54-.47-.43-1-.28-1.62a7,7,0,0,0-3.91-8c-.62-.28-1.3-.4-2-.62a.72.72,0,0,1-.41-.31,7,7,0,0,0-2.4-3,6.48,6.48,0,0,0-3.23-1.26,7,7,0,0,0-4.52.91c-1.77-2.68-4.21-4.05-7.44-3.49s-5.08,2.66-5.81,5.77a19.79,19.79,0,0,0-2,.13,7,7,0,0,0-5.89,7.1.75.75,0,0,1-.36.73,6.54,6.54,0,0,0-2.25,2.69,6.88,6.88,0,0,0,.45,6.85,15.56,15.56,0,0,0,1.23,1.48.89.89,0,0,1,.24.52,7.1,7.1,0,0,0,7.91,7.13,11.87,11.87,0,0,0,2.15-.6.64.64,0,0,1,.17-.05.73.73,0,0,1,.4.09c.58-.56,1.35-1.28,1.63-1.57l.07-.09h0c-.14.11,0,0,.16-.21.32-.43.64-.85,1-1.29l.1.2.34-.34s.64-.65.82.07a8.08,8.08,0,0,0,3.78.52h0l1.75-.44a1,1,0,0,1,.38-.22c.14-.05.28-.12.47-.21a7.51,7.51,0,0,0,1.77,3.8c-.07.07-.16.13-.24.2l1.32,1.32.25-.24a15.3,15.3,0,0,0,2.1.83,7.1,7.1,0,0,0,8.87-5.79.66.66,0,0,1,.3-.42,7.11,7.11,0,0,0,3.27-10.32Z"/><path class="cls-10" d="M1538.44,299.64h0l.16-.21C1538.4,299.64,1538.3,299.75,1538.44,299.64Z"/><path class="cls-10" d="M1546.45,303.17c-.49.17-.86,0-.9-.53a9,9,0,0,1,.08-1.87c.09-.68.3-1.33.42-2a1,1,0,0,1,.3-.61l-1.75.44a4.37,4.37,0,0,1-.11.62,16.77,16.77,0,0,1-.63,2c-.28.67-.8.72-1.23.13-.6-.85-1.13-1.74-1.68-2.63-.14-.23-.24-.49-.37-.74l.24.08c-.18-.72-.82-.07-.82-.07l-.34.34c.42.88.83,1.75,1.29,2.69a4.9,4.9,0,0,1-2.77-1l.19-.26c-.28.29-1,1-1.63,1.57l0,0c1,.55,1.92,1.09,2.89,1.61a1.15,1.15,0,0,0,.63.14c.42,0,.45.19.46.51.06,1.71.15,3.42.22,5.14a17.44,17.44,0,0,1-.44,4.44l-1,4.3a2.48,2.48,0,0,0,0,.27h8.5c-.39-2-.8-3.88-1.17-5.83a17.46,17.46,0,0,1,.17-4.84,3.65,3.65,0,0,1,1.38-2.5c.56-.5,1.09-1,1.63-1.51l-1.32-1.32A6.94,6.94,0,0,1,1546.45,303.17Z"/><path class="cls-9" d="M1565.07,342.44h17.13l-13.87-14.68h10.2l-12.64-14.68h8.56l-11.83-13.87L1552,313.08h8.16l-12.64,14.68h9.38l-12.24,14.68h20.39Z"/><rect class="cls-9" x="1560.59" y="342.45" width="4.49" height="8.55"/><path class="cls-10" d="M1488.44,338.91l-.07.09C1488.49,338.89,1488.52,338.85,1488.44,338.91Z"/><path class="cls-10" d="M1493,338.27l1.6-.4h0a8.08,8.08,0,0,1-3.78-.52l0,.07C1491,338.27,1493,338.27,1493,338.27Z"/><path class="cls-10" d="M1498,340.27l.73.74.24-.21a7.51,7.51,0,0,1-1.77-3.8c-.19.09-.33.16-.47.21a.9.9,0,0,0-.38.23l.65-.17Z"/><path class="cls-10" d="M1489.56,337.41c-.32.44-.64.86-1,1.29l1.06-1.09Z"/><path class="cls-10" d="M1514.84,326.38a1.21,1.21,0,0,0-.15-.22c-.54-.48-.43-1-.28-1.63a7,7,0,0,0-3.91-8c-.62-.28-1.3-.4-2-.62a.72.72,0,0,1-.41-.31,7.09,7.09,0,0,0-2.4-3,6.58,6.58,0,0,0-3.23-1.26,7,7,0,0,0-4.52.91c-1.77-2.67-4.21-4.05-7.44-3.48s-5.08,2.66-5.81,5.77a17.36,17.36,0,0,0-2,.12,7,7,0,0,0-5.89,7.11.75.75,0,0,1-.36.72,6.63,6.63,0,0,0-2.25,2.7,6.88,6.88,0,0,0,.45,6.85,15.45,15.45,0,0,0,1.23,1.47.89.89,0,0,1,.24.52,7.1,7.1,0,0,0,7.91,7.13,11.87,11.87,0,0,0,2.15-.6.59.59,0,0,1,.17,0,.64.64,0,0,1,.4.08c.58-.55,1.35-1.28,1.63-1.57l.07-.09h0c-.14.11,0,0,.16-.21.32-.43.64-.85,1-1.29l.1.2.34-.34s.64-.65.82.07a8.08,8.08,0,0,0,3.78.52h0l1.75-.43a.9.9,0,0,1,.38-.23c.14,0,.28-.12.47-.21a7.51,7.51,0,0,0,1.77,3.8l-.24.21,1.32,1.31.25-.24a15.32,15.32,0,0,0,2.1.84,7.11,7.11,0,0,0,8.87-5.8.69.69,0,0,1,.3-.42,7.11,7.11,0,0,0,3.27-10.32Z"/><path class="cls-10" d="M1488.44,338.91h0l.16-.21C1488.4,338.91,1488.3,339,1488.44,338.91Z"/><path class="cls-10" d="M1496.45,342.44c-.49.17-.86,0-.9-.52a9.08,9.08,0,0,1,.08-1.88c.09-.68.3-1.33.42-2a1,1,0,0,1,.3-.6l-1.75.43a4.81,4.81,0,0,1-.11.63,17.19,17.19,0,0,1-.63,2c-.28.67-.8.73-1.23.13-.6-.84-1.13-1.74-1.68-2.62-.14-.24-.24-.5-.37-.75l.24.08c-.18-.72-.82-.07-.82-.07l-.34.34c.42.88.83,1.75,1.29,2.69a4.9,4.9,0,0,1-2.77-1l.19-.26c-.28.29-1,1-1.63,1.57l0,0c1,.55,1.92,1.09,2.89,1.61a1.25,1.25,0,0,0,.63.15c.42,0,.45.18.46.5.06,1.72.15,3.43.22,5.14a17.56,17.56,0,0,1-.44,4.45l-1,4.29a2.48,2.48,0,0,0,0,.27h8.5c-.39-1.94-.8-3.88-1.17-5.83a17.46,17.46,0,0,1,.17-4.84,3.65,3.65,0,0,1,1.38-2.5c.56-.5,1.09-1,1.63-1.51l-1.32-1.31A6.91,6.91,0,0,1,1496.45,342.44Z"/><path class="cls-9" d="M1466.07,308.44h17.13l-13.87-14.68h10.2l-12.64-14.68h8.56l-11.83-13.87L1453,279.08h8.16l-12.64,14.68h9.38l-12.24,14.68h20.39Z"/><rect class="cls-9" x="1461.59" y="308.45" width="4.49" height="8.55"/><path class="cls-10" d="M1485.44,284.64l-.07.09C1485.49,284.62,1485.52,284.57,1485.44,284.64Z"/><path class="cls-10" d="M1490,284l1.6-.4h0a8.08,8.08,0,0,1-3.78-.52l0,.07C1488,284,1490,284,1490,284Z"/><path class="cls-10" d="M1495,286l.73.73c.08-.07.17-.13.24-.2a7.51,7.51,0,0,1-1.77-3.8c-.19.09-.33.16-.47.21a1,1,0,0,0-.38.22l.65-.16Z"/><path class="cls-10" d="M1486.56,283.14c-.32.44-.64.86-1,1.29l1.06-1.09Z"/><path class="cls-10" d="M1511.84,272.11a1.3,1.3,0,0,0-.15-.23c-.54-.47-.43-1-.28-1.62a7,7,0,0,0-3.91-8c-.62-.28-1.3-.4-2-.62a.72.72,0,0,1-.41-.31,7,7,0,0,0-2.4-3,6.48,6.48,0,0,0-3.23-1.26,7,7,0,0,0-4.52.91c-1.77-2.68-4.21-4-7.44-3.49s-5.08,2.66-5.81,5.77a19.79,19.79,0,0,0-2,.13,7,7,0,0,0-5.89,7.1.75.75,0,0,1-.36.73,6.54,6.54,0,0,0-2.25,2.69,6.88,6.88,0,0,0,.45,6.85,15.56,15.56,0,0,0,1.23,1.48.89.89,0,0,1,.24.52,7.1,7.1,0,0,0,7.91,7.13,11.87,11.87,0,0,0,2.15-.6.64.64,0,0,1,.17-.05.73.73,0,0,1,.4.09c.58-.56,1.35-1.28,1.63-1.57l.07-.09h0c-.14.11,0,0,.16-.21.32-.43.64-.85,1-1.29l.1.2.34-.34s.64-.65.82.07a8.08,8.08,0,0,0,3.78.52h0l1.75-.44a1,1,0,0,1,.38-.22c.14-.05.28-.12.47-.21a7.51,7.51,0,0,0,1.77,3.8c-.07.07-.16.13-.24.2l1.32,1.32.25-.24a15.3,15.3,0,0,0,2.1.83,7.1,7.1,0,0,0,8.87-5.79.66.66,0,0,1,.3-.42,7.11,7.11,0,0,0,3.27-10.32Z"/><path class="cls-10" d="M1485.44,284.64h0l.16-.21C1485.4,284.64,1485.3,284.75,1485.44,284.64Z"/><path class="cls-10" d="M1493.45,288.17c-.49.17-.86,0-.9-.53a9,9,0,0,1,.08-1.87c.09-.68.3-1.33.42-2a1,1,0,0,1,.3-.61l-1.75.44a4.37,4.37,0,0,1-.11.62,16.77,16.77,0,0,1-.63,2c-.28.67-.8.72-1.23.13-.6-.85-1.13-1.74-1.68-2.63-.14-.23-.24-.49-.37-.74l.24.08c-.18-.72-.82-.07-.82-.07l-.34.34c.42.88.83,1.75,1.29,2.69a4.9,4.9,0,0,1-2.77-1l.19-.26c-.28.29-1,1-1.63,1.57l0,0c1,.55,1.92,1.09,2.89,1.61a1.15,1.15,0,0,0,.63.14c.42,0,.45.19.46.51.06,1.71.15,3.42.22,5.14a17.44,17.44,0,0,1-.44,4.44l-1,4.3a2.48,2.48,0,0,0,0,.27h8.5c-.39-2-.8-3.88-1.17-5.83a17.46,17.46,0,0,1,.17-4.84,3.65,3.65,0,0,1,1.38-2.5c.56-.5,1.09-1,1.63-1.51l-1.32-1.32A6.94,6.94,0,0,1,1493.45,288.17Z"/><path class="cls-9" d="M291.94,1069.68h17.13L295.2,1055h10.2l-12.64-14.68h8.56l-11.82-13.86-10.61,13.86h8.16L274.41,1055h9.38l-12.24,14.68h15.91v0h4.48Z"/><rect class="cls-9" x="287.46" y="1069.7" width="4.49" height="8.55"/><path class="cls-10" d="M320.44,1027.91l-.07.09C320.49,1027.89,320.52,1027.85,320.44,1027.91Z"/><path class="cls-10" d="M325,1027.27l1.6-.4h0a8.08,8.08,0,0,1-3.78-.52l0,.07C323,1027.27,325,1027.27,325,1027.27Z"/><path class="cls-10" d="M330,1029.27l.73.74.24-.21a7.51,7.51,0,0,1-1.77-3.8c-.19.09-.33.16-.47.21a.9.9,0,0,0-.38.23l.65-.17Z"/><path class="cls-10" d="M321.56,1026.41l-1,1.29,1.06-1.09Z"/><path class="cls-10" d="M346.84,1015.38a1.21,1.21,0,0,0-.15-.22c-.54-.48-.43-1-.28-1.63a7,7,0,0,0-3.91-8c-.62-.28-1.3-.4-1.95-.62a.72.72,0,0,1-.41-.31,7.09,7.09,0,0,0-2.4-3,6.58,6.58,0,0,0-3.23-1.26,7,7,0,0,0-4.52.91c-1.77-2.67-4.21-4.05-7.44-3.48s-5.08,2.66-5.81,5.77a17.36,17.36,0,0,0-2.05.12,7,7,0,0,0-5.89,7.11.75.75,0,0,1-.36.72,6.63,6.63,0,0,0-2.25,2.7,6.88,6.88,0,0,0,.45,6.85,15.45,15.45,0,0,0,1.23,1.47.89.89,0,0,1,.24.52,7.1,7.1,0,0,0,7.91,7.13,11.87,11.87,0,0,0,2.15-.6.59.59,0,0,1,.17,0,.64.64,0,0,1,.4.08c.58-.55,1.35-1.28,1.63-1.57l.07-.09h0c-.14.11,0,0,.16-.21l1-1.29.1.2.34-.34s.64-.65.82.07a8.08,8.08,0,0,0,3.78.52h0l1.75-.43a.9.9,0,0,1,.38-.23c.14,0,.28-.12.47-.21a7.51,7.51,0,0,0,1.77,3.8l-.24.21,1.32,1.31.25-.24a15.32,15.32,0,0,0,2.1.84,7.11,7.11,0,0,0,8.87-5.8.69.69,0,0,1,.3-.42,7.11,7.11,0,0,0,3.27-10.32Z"/><path class="cls-10" d="M320.44,1027.91h0l.16-.21C320.4,1027.91,320.3,1028,320.44,1027.91Z"/><path class="cls-10" d="M328.45,1031.44c-.49.17-.86,0-.9-.52a9.08,9.08,0,0,1,.08-1.88c.09-.68.3-1.33.42-2a1,1,0,0,1,.3-.6l-1.75.43a4.81,4.81,0,0,1-.11.63,17.19,17.19,0,0,1-.63,2c-.28.67-.8.73-1.23.13-.6-.84-1.13-1.74-1.68-2.62-.14-.24-.24-.5-.37-.75l.24.08c-.18-.72-.82-.07-.82-.07l-.34.34c.42.88.83,1.75,1.29,2.69a4.9,4.9,0,0,1-2.77-1l.19-.26c-.28.29-1.05,1-1.63,1.57l0,0c1,.55,1.92,1.09,2.89,1.61a1.25,1.25,0,0,0,.63.15c.42,0,.45.18.46.5.06,1.72.15,3.43.22,5.14a17.56,17.56,0,0,1-.44,4.45l-1,4.29a2.48,2.48,0,0,0,0,.27H330c-.39-1.94-.8-3.88-1.17-5.83a17.46,17.46,0,0,1,.17-4.84,3.65,3.65,0,0,1,1.38-2.5c.56-.5,1.09-1,1.63-1.51l-1.32-1.31A6.91,6.91,0,0,1,328.45,1031.44Z"/><path class="cls-10" d="M275.44,1036.91l-.07.09C275.49,1036.89,275.52,1036.85,275.44,1036.91Z"/><path class="cls-10" d="M280,1036.27l1.6-.4h0a8.08,8.08,0,0,1-3.78-.52l0,.07C278,1036.27,280,1036.27,280,1036.27Z"/><path class="cls-10" d="M285,1038.27l.73.74.24-.21a7.51,7.51,0,0,1-1.77-3.8c-.19.09-.33.16-.47.21a.9.9,0,0,0-.38.23l.65-.17Z"/><path class="cls-10" d="M276.56,1035.41l-1,1.29,1.06-1.09Z"/><path class="cls-10" d="M301.84,1024.38a1.21,1.21,0,0,0-.15-.22c-.54-.48-.43-1-.28-1.63a7,7,0,0,0-3.91-8c-.62-.28-1.3-.4-1.95-.62a.72.72,0,0,1-.41-.31,7.09,7.09,0,0,0-2.4-3,6.58,6.58,0,0,0-3.23-1.26,7,7,0,0,0-4.52.91c-1.77-2.67-4.21-4.05-7.44-3.48s-5.08,2.66-5.81,5.77a17.36,17.36,0,0,0-2.05.12,7,7,0,0,0-5.89,7.11.75.75,0,0,1-.36.72,6.63,6.63,0,0,0-2.25,2.7,6.88,6.88,0,0,0,.45,6.85,15.45,15.45,0,0,0,1.23,1.47.89.89,0,0,1,.24.52,7.1,7.1,0,0,0,7.91,7.13,11.87,11.87,0,0,0,2.15-.6.59.59,0,0,1,.17,0,.64.64,0,0,1,.4.08c.58-.55,1.35-1.28,1.63-1.57l.07-.09h0c-.14.11,0,0,.16-.21l1-1.29.1.2.34-.34s.64-.65.82.07a8.08,8.08,0,0,0,3.78.52h0l1.75-.43a.9.9,0,0,1,.38-.23c.14,0,.28-.12.47-.21a7.51,7.51,0,0,0,1.77,3.8l-.24.21,1.32,1.31.25-.24a15.32,15.32,0,0,0,2.1.84,7.11,7.11,0,0,0,8.87-5.8.69.69,0,0,1,.3-.42,7.11,7.11,0,0,0,3.27-10.32Z"/><path class="cls-10" d="M275.44,1036.91h0l.16-.21C275.4,1036.91,275.3,1037,275.44,1036.91Z"/><path class="cls-10" d="M283.45,1040.44c-.49.17-.86,0-.9-.52a9.08,9.08,0,0,1,.08-1.88c.09-.68.3-1.33.42-2a1,1,0,0,1,.3-.6l-1.75.43a4.81,4.81,0,0,1-.11.63,17.19,17.19,0,0,1-.63,2c-.28.67-.8.73-1.23.13-.6-.84-1.13-1.74-1.68-2.62-.14-.24-.24-.5-.37-.75l.24.08c-.18-.72-.82-.07-.82-.07l-.34.34c.42.88.83,1.75,1.29,2.69a4.9,4.9,0,0,1-2.77-1l.19-.26c-.28.29-1.05,1-1.63,1.57l0,0c1,.55,1.92,1.09,2.89,1.61a1.25,1.25,0,0,0,.63.15c.42,0,.45.18.46.5.06,1.72.15,3.43.22,5.14a17.56,17.56,0,0,1-.44,4.45l-1,4.29a2.48,2.48,0,0,0,0,.27H285c-.39-1.94-.8-3.88-1.17-5.83a17.46,17.46,0,0,1,.17-4.84,3.65,3.65,0,0,1,1.38-2.5c.56-.5,1.09-1,1.63-1.51l-1.32-1.31A6.91,6.91,0,0,1,283.45,1040.44Z"/><path class="cls-9" d="M257.07,1006.44H274.2l-13.87-14.68h10.2l-12.64-14.68h8.56l-11.83-13.87L244,977.08h8.16l-12.64,14.68h9.38l-12.24,14.68h20.39Z"/><rect class="cls-9" x="252.59" y="1006.45" width="4.49" height="8.55"/><path class="cls-10" d="M266.44,968.91l-.07.09C266.49,968.89,266.52,968.85,266.44,968.91Z"/><path class="cls-10" d="M271,968.27l1.6-.4h0a8.08,8.08,0,0,1-3.78-.52l0,.07C269,968.27,271,968.27,271,968.27Z"/><path class="cls-10" d="M276,970.27l.73.74.24-.21a7.51,7.51,0,0,1-1.77-3.8c-.19.09-.33.16-.47.21a.9.9,0,0,0-.38.23l.65-.17Z"/><path class="cls-10" d="M267.56,967.41l-1,1.29,1.06-1.09Z"/><path class="cls-10" d="M292.84,956.38a1.21,1.21,0,0,0-.15-.22c-.54-.48-.43-1-.28-1.63a7,7,0,0,0-3.91-8c-.62-.28-1.3-.4-1.95-.62a.72.72,0,0,1-.41-.31,7.09,7.09,0,0,0-2.4-3,6.58,6.58,0,0,0-3.23-1.26,7,7,0,0,0-4.52.91c-1.77-2.67-4.21-4.05-7.44-3.48s-5.08,2.66-5.81,5.77a17.36,17.36,0,0,0-2.05.12,7,7,0,0,0-5.89,7.11.75.75,0,0,1-.36.72,6.63,6.63,0,0,0-2.25,2.7,6.88,6.88,0,0,0,.45,6.85,15.45,15.45,0,0,0,1.23,1.47.89.89,0,0,1,.24.52,7.1,7.1,0,0,0,7.91,7.13,11.87,11.87,0,0,0,2.15-.6.59.59,0,0,1,.17,0,.64.64,0,0,1,.4.08c.58-.55,1.35-1.28,1.63-1.57l.07-.09h0c-.14.11,0,0,.16-.21l1-1.29.1.2.34-.34s.64-.65.82.07a8.08,8.08,0,0,0,3.78.52h0l1.75-.43a.9.9,0,0,1,.38-.23c.14-.05.28-.12.47-.21a7.51,7.51,0,0,0,1.77,3.8l-.24.21,1.32,1.31.25-.24a15.32,15.32,0,0,0,2.1.84,7.11,7.11,0,0,0,8.87-5.8.69.69,0,0,1,.3-.42,7.11,7.11,0,0,0,3.27-10.32Z"/><path class="cls-10" d="M266.44,968.91h0l.16-.21C266.4,968.91,266.3,969,266.44,968.91Z"/><path class="cls-10" d="M274.45,972.44c-.49.17-.86,0-.9-.52a9.08,9.08,0,0,1,.08-1.88c.09-.68.3-1.33.42-2a1,1,0,0,1,.3-.6l-1.75.43a4.81,4.81,0,0,1-.11.63,17.19,17.19,0,0,1-.63,2c-.28.67-.8.73-1.23.13-.6-.84-1.13-1.74-1.68-2.62-.14-.24-.24-.5-.37-.75l.24.08c-.18-.72-.82-.07-.82-.07l-.34.34c.42.88.83,1.75,1.29,2.69a4.9,4.9,0,0,1-2.77-1l.19-.26c-.28.29-1.05,1-1.63,1.57l0,0c1,.55,1.92,1.09,2.89,1.61a1.25,1.25,0,0,0,.63.15c.42,0,.45.18.46.5.06,1.72.15,3.43.22,5.14a17.56,17.56,0,0,1-.44,4.45l-1,4.29a2.48,2.48,0,0,0,0,.27H276c-.39-1.94-.8-3.88-1.17-5.83a17.46,17.46,0,0,1,.17-4.84,3.65,3.65,0,0,1,1.38-2.5c.56-.5,1.09-1,1.63-1.51L276.73,971A6.91,6.91,0,0,1,274.45,972.44Z"/><path class="cls-10" d="M228.44,950.91l-.07.09C228.49,950.89,228.52,950.85,228.44,950.91Z"/><path class="cls-10" d="M233,950.27l1.6-.4h0a8.08,8.08,0,0,1-3.78-.52l0,.07C231,950.27,233,950.27,233,950.27Z"/><path class="cls-10" d="M238,952.27l.73.74.24-.21a7.51,7.51,0,0,1-1.77-3.8c-.19.09-.33.16-.47.21a.9.9,0,0,0-.38.23l.65-.17Z"/><path class="cls-10" d="M229.56,949.41l-1,1.29,1.06-1.09Z"/><path class="cls-10" d="M254.84,938.38a1.21,1.21,0,0,0-.15-.22c-.54-.48-.43-1-.28-1.63a7,7,0,0,0-3.91-8c-.62-.28-1.3-.4-1.95-.62a.72.72,0,0,1-.41-.31,7.09,7.09,0,0,0-2.4-3,6.58,6.58,0,0,0-3.23-1.26,7,7,0,0,0-4.52.91c-1.77-2.67-4.21-4.05-7.44-3.48s-5.08,2.66-5.81,5.77a17.36,17.36,0,0,0-2.05.12,7,7,0,0,0-5.89,7.11.75.75,0,0,1-.36.72,6.63,6.63,0,0,0-2.25,2.7,6.88,6.88,0,0,0,.45,6.85,15.45,15.45,0,0,0,1.23,1.47.89.89,0,0,1,.24.52,7.1,7.1,0,0,0,7.91,7.13,11.87,11.87,0,0,0,2.15-.6.59.59,0,0,1,.17,0,.64.64,0,0,1,.4.08c.58-.55,1.35-1.28,1.63-1.57l.07-.09h0c-.14.11,0,0,.16-.21l1-1.29.1.2.34-.34s.64-.65.82.07a8.08,8.08,0,0,0,3.78.52h0l1.75-.43a.9.9,0,0,1,.38-.23c.14-.05.28-.12.47-.21a7.51,7.51,0,0,0,1.77,3.8l-.24.21,1.32,1.31.25-.24a15.32,15.32,0,0,0,2.1.84,7.11,7.11,0,0,0,8.87-5.8.69.69,0,0,1,.3-.42,7.11,7.11,0,0,0,3.27-10.32Z"/><path class="cls-10" d="M228.44,950.91h0l.16-.21C228.4,950.91,228.3,951,228.44,950.91Z"/><path class="cls-10" d="M236.45,954.44c-.49.17-.86,0-.9-.52a9.08,9.08,0,0,1,.08-1.88c.09-.68.3-1.33.42-2a1,1,0,0,1,.3-.6l-1.75.43a4.81,4.81,0,0,1-.11.63,17.19,17.19,0,0,1-.63,2c-.28.67-.8.73-1.23.13-.6-.84-1.13-1.74-1.68-2.62-.14-.24-.24-.5-.37-.75l.24.08c-.18-.72-.82-.07-.82-.07l-.34.34c.42.88.83,1.75,1.29,2.69a4.9,4.9,0,0,1-2.77-1l.19-.26c-.28.29-1.05,1-1.63,1.57l0,0c.95.55,1.92,1.09,2.89,1.61a1.25,1.25,0,0,0,.63.15c.42,0,.45.18.46.5.06,1.72.15,3.43.22,5.14a17.56,17.56,0,0,1-.44,4.45l-1,4.29a2.48,2.48,0,0,0,0,.27H238c-.39-1.94-.8-3.88-1.17-5.83a17.46,17.46,0,0,1,.17-4.84,3.65,3.65,0,0,1,1.38-2.5c.56-.5,1.09-1,1.63-1.51L238.73,953A6.91,6.91,0,0,1,236.45,954.44Z"/></g><g id="Maske"><path class="cls-7" d="M192,778.5C192,348.55,540.55,0,970.5,0H0V1557H970.5C540.55,1557,192,1208.45,192,778.5Z"/><path class="cls-7" d="M970.5,0c430,0,778.5,348.55,778.5,778.5S1400.45,1557,970.5,1557H1947V0Z"/></g><g id="Titel"><rect x="411" y="92" width="565.42" height="69.71"/><rect x="411" y="167.52" width="639" height="69.71"/><text class="cls-11" transform="translate(427.78 146.9)"><tspan xml:space="preserve">Wie oft besuche ich  </tspan><tspan x="0" y="73">welche Orte in Zürich?</tspan><tspan class="cls-12"><tspan x="0" y="123">in einer </tspan><tspan class="cls-13" x="109.76" y="123">W</tspan><tspan class="cls-14" x="137.05" y="123">oche mit 168 Stunden</tspan></tspan></text></g></svg>