<?xml version="1.0" encoding="utf-8"?>
<!-- Generator: Adobe Illustrator 23.0.0, SVG Export Plug-In . SVG Version: 6.00 Build 0)  -->
<svg version="1.1" id="Ebene_1" xmlns="http://www.w3.org/2000/svg" xmlns:xlink="http://www.w3.org/1999/xlink" x="0px" y="0px"
	 viewBox="0 0 1947 1557" style="enable-background:new 0 0 1947 1557;" xml:space="preserve">
<style type="text/css">
	.st0{fill:#304E79;}
	.st1{fill:#FFFFFF;}
	.st2{font-family:'HelveticaNeue-Medium';}
	.st3{font-size:30px;}
	.st4{letter-spacing:-3;}
</style>
<title>zurich_map_kreis</title>
<g id="Kreise_Kopie">
	<circle class="st0" cx="400.9" cy="885.2" r="55"/>
	<circle class="st0" cx="1545" cy="434" r="95"/>
	<circle class="st0" cx="1320" cy="559.1" r="22.5"/>
	<circle class="st0" cx="1275" cy="650" r="22.5"/>
	<circle class="st0" cx="1124.9" cy="681.7" r="12.7"/>
	<circle class="st0" cx="914.2" cy="655.4" r="22.5"/>
	<circle class="st0" cx="672" cy="641" r="20"/>
	<circle class="st0" cx="672" cy="848" r="20"/>
	<circle class="st0" cx="618.5" cy="1199.5" r="22.5"/>
	<circle class="st0" cx="514.5" cy="1014.5" r="22.5"/>
	<circle class="st0" cx="1302" cy="1037" r="22.5"/>
	<circle class="st0" cx="1293" cy="1343" r="22.5"/>
	<circle class="st0" cx="897.2" cy="821.8" r="17.5"/>
	<circle class="st0" cx="1161" cy="843.3" r="27.5"/>
	<circle class="st0" cx="969" cy="938" r="27.5"/>
	<circle class="st0" cx="334.5" cy="1131.5" r="20"/>
	<circle class="st0" cx="420.3" cy="1076.8" r="27.5"/>
	<text transform="matrix(1 0 0 1 1311.49 568.86)" class="st1 st2 st3">3</text>
	<text transform="matrix(1 0 0 1 1266.49 658.86)" class="st1 st2 st3">3</text>
	<text transform="matrix(1 0 0 1 906.27 668.36)" class="st1 st2 st3">3</text>
	<text transform="matrix(1 0 0 1 663.27 650.36)" class="st1 st2 st3">2</text>
	<text transform="matrix(1 0 0 1 662.82 857.02)" class="st1 st2 st3">2</text>
	<text transform="matrix(1 0 0 1 384.39 896.89)" class="st1 st2 st3 st4">1</text>
	<text transform="matrix(1 0 0 1 397.47 896.89)" class="st1 st2 st3">8</text>
	<text transform="matrix(1 0 0 1 504.74 1022.89)" class="st1 st2 st3">3</text>
	<text transform="matrix(1 0 0 1 888.39 832.89)" class="st1 st2 st3">1</text>
	<text transform="matrix(1 0 0 1 1116.41 693.61)" class="st1 st2 st3">1</text>
	<text transform="matrix(1 0 0 1 411.39 1085.89)" class="st1 st2 st3">5</text>
	<text transform="matrix(1 0 0 1 609.39 1211.89)" class="st1 st2 st3">3</text>
	<text transform="matrix(1 0 0 1 1284.39 1355.89)" class="st1 st2 st3">3</text>
	<text transform="matrix(1 0 0 1 1293.8199 1046.67)" class="st1 st2 st3">3</text>
	<text transform="matrix(1 0 0 1 1148.8199 851.67)" class="st1 st2 st3">5</text>
	<text transform="matrix(1 0 0 1 960.48 946.89)" class="st1 st2 st3">5</text>
	<text transform="matrix(1 0 0 1 323.74 1139.89)" class="st1 st2 st3">2</text>
	<text transform="matrix(1 0 0 1 1527.4 443.24)" class="st1 st2 st3">70</text>
</g>
</svg>
