<svg id="Linkgroup" xmlns="http://www.w3.org/2000/svg" viewBox="0 0 171 137.85"><defs><style>.cls-1{fill:#4e4d4d;}.cls-2{fill:#fff;}</style></defs><title>linkgroup-haus-klein</title><path class="cls-1" d="M1377.49,589.85l.44-52.35-3.93-5.23,38.39-41.88S1445.54,452,1459.5,452c12.21,0,48,39.36,48,39.36L1545,532.27l-3.8,5.38.31,52.2Z" transform="translate(-1374 -452)"/><circle class="cls-2" cx="85.5" cy="20.07" r="6.11"/><rect class="cls-2" x="73.29" y="38.39" width="22.68" height="19.19"/><rect class="cls-2" x="48.86" y="38.39" width="15.7" height="19.19"/><rect class="cls-2" x="104.69" y="38.39" width="15.7" height="19.19"/><rect class="cls-2" x="73.29" y="66.31" width="22.68" height="19.19"/><rect class="cls-2" x="48.86" y="66.31" width="15.7" height="19.19"/><rect class="cls-2" x="22.68" y="66.31" width="15.7" height="19.19"/><rect class="cls-2" x="104.69" y="66.31" width="15.7" height="19.19"/><rect class="cls-2" x="129.12" y="66.31" width="15.7" height="19.19"/><rect class="cls-2" x="73.29" y="94.22" width="22.68" height="19.19"/><rect class="cls-2" x="22.68" y="94.22" width="34.9" height="19.19"/><rect class="cls-2" x="104.69" y="94.22" width="15.7" height="19.19"/><rect class="cls-2" x="108.18" y="94.22" width="36.64" height="19.19"/><rect class="cls-2" x="48.86" y="94.22" width="15.7" height="19.19"/></svg>