<svg xmlns="http://www.w3.org/2000/svg" xmlns:xlink="http://www.w3.org/1999/xlink" viewBox="0 0 1947 1557"><defs><style>.cls-1,.cls-11,.cls-13,.cls-14{fill:none;}.cls-2{fill:#1d1d1b;}.cls-3{fill:#aad88d;}.cls-4,.cls-5{opacity:0.46;}.cls-4{fill:url(#_6_dpi_10_);}.cls-5,.cls-6{fill:#a5e3f5;}.cls-17,.cls-7{fill:#fff;}.cls-8{fill:#4cc8ec;}.cls-9{fill:#676767;}.cls-10{fill:#4e4d4d;}.cls-11{stroke:#676767;stroke-width:4px;}.cls-11,.cls-13,.cls-14,.cls-18{stroke-miterlimit:10;}.cls-12{fill:#699673;}.cls-13,.cls-14{stroke:#fff;}.cls-13{stroke-width:2px;}.cls-14{stroke-width:0.75px;}.cls-15{fill:#28285b;}.cls-16{fill:#214d3d;}.cls-17{font-size:58.09px;font-family:HelveticaNeue-Medium, Helvetica Neue;font-weight:500;}.cls-18{font-size:29px;fill:#304e79;stroke:#304e79;letter-spacing:0.01em;}.cls-19{letter-spacing:0em;}.cls-20{letter-spacing:0.02em;}</style><pattern id="_6_dpi_10_" data-name="6 dpi 10%" width="48" height="48" patternTransform="translate(483 924)" patternUnits="userSpaceOnUse" viewBox="0 0 48 48"><rect class="cls-1" width="48" height="48"/><circle class="cls-2" cx="24" cy="48" r="1.2"/><circle class="cls-2" cx="48" cy="48" r="1.2"/><circle class="cls-2" cx="24" cy="24" r="1.2"/><circle class="cls-2" cx="48" cy="24" r="1.2"/><circle class="cls-2" cx="36" cy="36" r="1.2"/><circle class="cls-2" cx="12" cy="36" r="1.2"/><circle class="cls-2" cx="36" cy="12" r="1.2"/><circle class="cls-2" cx="12" cy="12" r="1.2"/><circle class="cls-2" cy="48" r="1.2"/><circle class="cls-2" cy="24" r="1.2" transform="translate(-23.69 20.16) rotate(-80.78)"/><circle class="cls-2" cx="24" r="1.2"/><circle class="cls-2" cx="48" r="1.2"/><circle class="cls-2" r="1.2" transform="translate(0 0) rotate(-80.78)"/></pattern></defs><title>zurich_map_orte</title><g id="Background"><circle class="cls-3" cx="973.5" cy="778.5" r="778.5"/><circle class="cls-4" cx="973.5" cy="778.5" r="778.5"/></g><g id="Wasser"><path class="cls-5" d="M630.49,814.46l-1,.11c-78.47,8-186.78,17.76-281.8,27.23v-49c95.06-9.16,208.54-19.74,285.63-33.93C634.2,775.84,631.92,801.06,630.49,814.46ZM749,796.71a88.4,88.4,0,0,0-11.49,3.88c-6,2.63-38.79,6.73-86.15,11.71,1-14.8-1-40.74-2.41-56.46,29.56-6.06,52.28-12.76,64.32-20.25,4.66-2.91,16.87-5.79,34-8.5l2.71,7.09S758.47,763,749,796.71Zm137.34-19.79c-42.76,3.91-79.19,9.08-109,14.76,3.22-12.39,2.32-39.26-3.76-68.22,32.43-3.92,73.59-7.3,113.8-9.67C892.26,730.75,891.9,768.56,886.36,776.92Zm236.17,3.3c-42-4.57-74.75-8.7-81.81-9.62-20.46-2.66-83.09,0-146.77,5.65,3.09-8.7,12.82-39.86,2.77-63,63.09-3.47,122-4.3,138.63-.55,26.05,5.87,63.64,10.46,94.84,13.89C1129.77,738.71,1128.2,760,1122.53,780.22Zm239.75,11.37c-6.48.52-14,1.23-22.76,2-41.41,3.61-134.48-4.57-206.09-12.2,3.57-12.45,9.07-34.21,10-53.35,15,1.6,27.58,2.9,35.21,3.9,20.88,2.75,117.87.49,189.12-24.35-1,20.92,6,47.25-9.22,84Z"/><path class="cls-6" d="M773.63,723.46c6.08,29,7,55.83,3.76,68.22,29.78-5.68,66.21-10.85,109-14.76,5.54-8.36,5.9-46.17,1.07-63.13C847.22,716.16,806.06,719.54,773.63,723.46Z"/><path class="cls-6" d="M896.72,713.27c10,23.12.32,54.28-2.77,63,63.68-5.6,126.31-8.31,146.77-5.65,7.06.92,39.78,5,81.81,9.62,5.67-20.23,7.24-41.51,7.66-53.61-31.2-3.43-68.79-8-94.84-13.89C1018.69,709,959.81,709.8,896.72,713.27Z"/><path class="cls-6" d="M1367.8,707.59c-71.25,24.84-168.24,27.1-189.12,24.35-7.63-1-20.21-2.3-35.21-3.9-1,19.14-6.47,40.9-10,53.35,71.61,7.63,164.68,15.81,206.09,12.2,8.76-.77,16.28-1.48,22.76-2h-3.7C1373.82,754.84,1366.85,728.51,1367.8,707.59Z"/><path class="cls-6" d="M1721.14,549a8.2,8.2,0,0,0-11.56-5.76s-234,100.81-277.25,126a135.69,135.69,0,0,0-24.26,18.69c-3.89,3.89-7,11.57-6.8,17.07l2.57,94.07a128.72,128.72,0,0,0,2.37,19.77s30.86,143.68,50.48,178c14,24.45,233.15,79.53,233.15,79.53a10.63,10.63,0,0,0,12.61-7.13s55.25-181.5,55.25-286.2C1757.7,697.94,1721.14,549,1721.14,549Z"/><path class="cls-6" d="M747.26,727.09c-17.1,2.71-29.31,5.59-34,8.5-12,7.49-34.76,14.19-64.32,20.25,1.46,15.72,3.46,41.66,2.41,56.46,47.36-5,80.13-9.08,86.15-11.71A88.4,88.4,0,0,1,749,796.71c9.45-33.68,1-62.53,1-62.53Z"/><path class="cls-6" d="M338.56,793.69c-56.66,5.47-106,10.45-135.86,15.4v30q.66,9.24,1.53,18.41c35.66-4.58,82.8-9.64,134.33-14.81Z"/><path class="cls-6" d="M347.65,792.82v49c95-9.47,203.33-19.26,281.8-27.23l1-.11c1.43-13.4,3.71-38.62,2.79-55.57C556.19,773.08,442.71,783.66,347.65,792.82Z"/><polygon class="cls-7" points="1545.97 918.72 1554.48 909.15 1565.12 909.15 1566.19 899.57 1622.58 899.57 1632.15 899.57 1632.15 918.72 1632.15 928.3 1545.97 925.11 1545.97 918.72"/><path class="cls-8" d="M1637.73,929.39a5.54,5.54,0,0,0,.48-2.69c0-3.15,0-6.29,0-9.44,0-.83,0-1.66,0-2.48,0-.5-.14-.69-.66-.68-1.32,0-2.64,0-4,0-.66,0-.67,0-.67-.69v-14c0-.7,0-.71-.7-.71h-7.67c-.67,0-.67,0-.67-.68,0-2.9,0-5.79,0-8.68,0-.44-.11-.6-.56-.59q-3.88,0-7.77,0c-.52,0-.66.19-.66.68,0,2.85,0,5.69,0,8.53,0,.72,0,.72-.74.72H1566c-.74,0-.74,0-.74.73,0,2.15,0,4.3,0,6.45,0,1,0,1-1,1-2.69,0-5.38,0-8.07,0a2,2,0,0,0-1.77.85c-1.2,1.55-2.32,3.16-3.62,4.63-.33.38-.59.82-.89,1.23a1.4,1.4,0,0,1-1.27.59h-19.85c-.22,0-.59-.12-.63.11s.35.29.57.37a48.67,48.67,0,0,1,8.81,4.11,27.14,27.14,0,0,1,7.25,6.12,7.3,7.3,0,0,1,1.27,2.3,17.84,17.84,0,0,0,1.11,2.72.52.52,0,0,1,.07.41,48.85,48.85,0,0,0-24.78.32l0,.15,1.26.56c1.84.77,1.84.76,3.78.33a33.93,33.93,0,0,1,9.41-1,47.61,47.61,0,0,1,8.2,1.3,80.83,80.83,0,0,0,12.86,2,66.87,66.87,0,0,0,12.25-.3c3.64-.4,7.21-1.16,10.78-1.91a53.71,53.71,0,0,1,7.69-1,49.05,49.05,0,0,1,12.38,1.15c3.39.65,6.77,1.36,10.2,1.76a66.41,66.41,0,0,0,9.87.38,93.72,93.72,0,0,0,15.18-2.32,46,46,0,0,1,9.49-1.15,37,37,0,0,1,8.25,1,5.61,5.61,0,0,0,4.37-.48,6.11,6.11,0,0,1,.74-.32c.09,0,.22-.06.2-.19s-.14-.14-.24-.16a70,70,0,0,0-9.1-1.44,54.82,54.82,0,0,0-5.73-.16,48.69,48.69,0,0,0-5.66.45C1638.38,929.35,1638.09,929.36,1637.73,929.39Zm-10.47-12.78c.62,0,1.25,0,1.87,0,.33,0,.5.11.49.47,0,.52,0,1,0,1.57,0,.32-.12.44-.44.44h-3.7c-.33,0-.51-.11-.5-.46,0-.53,0-1,0-1.57,0-.32.13-.45.46-.45C1626,916.62,1626.65,916.61,1627.26,916.61Zm0-4.63c-.61,0-1.22,0-1.83,0-.33,0-.46-.15-.45-.46s0-.91,0-1.37.13-.49.48-.49H1629c.33,0,.41.15.4.44a12.35,12.35,0,0,0,0,1.36c0,.46-.17.54-.57.52S1627.76,912,1627.23,912Zm-72.81,7h-1.67c-.32,0-.47-.12-.47-.45,0-.52,0-1,0-1.57,0-.28.12-.39.4-.39h3.3c.29,0,.44.11.43.41,0,.56,0,1.12,0,1.68,0,.23-.08.33-.33.33Zm15.37-2.4h1.57c.25,0,.38.1.37.36v1.68c0,.26-.14.36-.38.36h-3.14c-.29,0-.39-.16-.38-.42V917c0-.31.15-.41.44-.4Zm41.32,0h1.53c.29,0,.44.09.43.41,0,.52,0,1.05,0,1.57,0,.31-.14.42-.43.42h-3.05c-.33,0-.44-.15-.43-.47,0-.49,0-1,0-1.47s.14-.47.48-.46S1610.62,916.61,1611.11,916.61Zm-31.09,0h1.52c.33,0,.46.14.45.46,0,.5,0,1,0,1.52,0,.31-.13.42-.43.42h-3c-.33,0-.45-.15-.45-.46,0-.51,0-1,0-1.52,0-.31.12-.43.42-.42Zm25.77,2.41v0c-.49,0-1,0-1.47,0-.32,0-.44-.08-.43-.39,0-.54,0-1.08,0-1.62,0-.34.15-.44.46-.44h3c.33,0,.44.13.43.45,0,.49,0,1,0,1.47s-.17.51-.52.5Zm10.59,0h-1.52c-.3,0-.43-.13-.43-.43,0-.51,0-1,0-1.52,0-.32.11-.46.45-.45h3c.29,0,.43.09.42.41,0,.51,0,1,0,1.52s-.16.48-.49.47Zm-15.82,0h0c-.49,0-1,0-1.47,0s-.51-.14-.49-.51,0-.91,0-1.37c0-.31.12-.44.44-.47,1-.09,2.06,0,3.09,0,.29,0,.38.14.38.41,0,.52,0,1,0,1.57,0,.3-.13.42-.43.42Zm-15.3-2.4c.51,0,1,0,1.52,0,.3,0,.43.13.42.43,0,.52,0,1,0,1.57,0,.29-.14.42-.43.42h-3c-.3,0-.42-.14-.42-.44,0-.5,0-1,0-1.51s.15-.48.49-.47S1584.79,916.61,1585.26,916.61Zm36.39,2.41h-1.47c-.3,0-.48-.1-.48-.43,0-.53,0-1.05,0-1.57,0-.31.14-.42.44-.41h3c.3,0,.43.11.43.42,0,.5,0,1,0,1.52,0,.35-.16.48-.49.47Zm-15.81-7h-1.57c-.28,0-.4-.12-.39-.39,0-.51,0-1,0-1.52,0-.28.13-.39.4-.39h3.09c.3,0,.42.12.42.42,0,.48,0,.95,0,1.42s-.14.48-.48.46Zm-5.25,0h-1.52c-.32,0-.48-.09-.47-.43s0-1,0-1.47c0-.31.13-.43.42-.42h3c.33,0,.45.14.44.46s0,1,0,1.42-.14.45-.46.44Zm-20.54,0h-1.52c-.33,0-.46-.12-.45-.45s0-.94,0-1.41c0-.29.09-.45.4-.44h3.09c.3,0,.42.12.42.42,0,.48,0,.95,0,1.42s-.15.48-.49.46Zm36.35,0h-1.52c-.29,0-.45-.09-.45-.41,0-.5,0-1,0-1.52,0-.28.14-.39.41-.39h3.09c.28,0,.41.13.4.4,0,.49,0,1,0,1.47,0,.33-.12.45-.45.44C1617.38,912,1616.89,912,1616.4,912Zm-5.28,0h-1.57c-.27,0-.39-.12-.39-.4,0-.5,0-1,0-1.51,0-.28.12-.4.4-.4q1.51,0,3,0c.32,0,.47.15.46.46,0,.47,0,1,0,1.42s-.14.44-.45.43Zm10.52,0h-1.52c-.26,0-.41-.09-.41-.38v-1.52c0-.27.12-.4.4-.4,1,0,2,0,3,0,.32,0,.47.14.46.46,0,.47,0,1,0,1.42,0,.31-.12.43-.41.42Zm-51.82,0h-1.57c-.3,0-.43-.12-.43-.42q0-.74,0-1.47c0-.3.14-.43.43-.42h3a.38.38,0,0,1,.43.43c0,.52,0,1,0,1.57,0,.26-.12.32-.34.32Zm15.46,0h-1.51c-.28,0-.41-.11-.4-.39,0-.51,0-1,0-1.52a.35.35,0,0,1,.4-.4c1,0,2,0,3,0,.27,0,.41.12.41.39,0,.51,0,1,0,1.52,0,.27-.12.4-.4.4Zm-10.42,7h0c-.45,0-.91,0-1.36,0-.28,0-.42,0-.41-.35,0-.55,0-1.11,0-1.67,0-.31.15-.41.44-.4h2.78c.32,0,.41.14.41.43,0,.5,0,1,0,1.52s-.16.47-.49.46Zm15.58,0h0c-.48,0-1,0-1.46,0-.24,0-.34-.08-.34-.32V917c0-.27.11-.4.39-.39h2.83c.28,0,.39.14.38.41v1.62c0,.31-.13.4-.43.39C1591.35,919,1590.9,919,1590.44,919Zm5,0h-1.37c-.32,0-.45-.14-.44-.46,0-.5,0-1,0-1.51,0-.33.14-.45.46-.45h2.73c.3,0,.41.14.41.43,0,.52,0,1,0,1.57,0,.3-.13.42-.43.42Zm-35.84,0c-.46,0-.91,0-1.37,0-.29,0-.44-.07-.44-.39,0-.59,0-1.18,0-1.77,0-.25.16-.26.34-.27H1561c.26,0,.37.12.37.37,0,.56,0,1.12,0,1.67,0,.32-.14.4-.44.39C1560.51,919,1560.05,919,1559.6,919Zm5.11,0h-1.42c-.28,0-.45-.1-.45-.41V917c0-.25.1-.38.36-.38h2.89c.24,0,.32.12.32.35,0,.58,0,1.15,0,1.73,0,.25-.09.36-.36.35C1565.59,919,1565.15,919,1564.71,919Zm-5.11-7c-.46,0-.92,0-1.37,0s-.46-.13-.45-.46q0-.74,0-1.47c0-.3.1-.41.42-.41.94,0,1.89,0,2.84,0,.27,0,.36.09.36.35,0,.52,0,1,0,1.57,0,.31-.14.42-.43.41Zm15.32,0h-1.42c-.24,0-.4-.07-.4-.34,0-.54,0-1.08,0-1.62a.3.3,0,0,1,.35-.34h2.89a.32.32,0,0,1,.37.37c0,.51,0,1,0,1.52,0,.32-.14.42-.43.41Zm-10.25,0h-1.37c-.32,0-.48-.1-.47-.43s0-.95,0-1.42.14-.46.46-.46H1566c.3,0,.44.12.43.42,0,.49,0,1,0,1.48,0,.3-.12.42-.42.41Zm30.78-2.31h1.31c.35,0,.48.14.47.48s0,.91,0,1.36-.15.48-.49.48h-2.68c-.33,0-.44-.14-.43-.46s0-.94,0-1.41.13-.46.45-.45Zm-5.07,0h0c.48,0,.95,0,1.42,0s.45.12.44.44c0,.49,0,1,0,1.47,0,.31-.09.42-.4.42h-2.73c-.32,0-.47-.1-.46-.44,0-.51,0-1,0-1.52,0-.27.07-.4.38-.38S1589.93,909.66,1590.38,909.66Zm20.69-7.8h1.56c.29,0,.44.1.44.41a10.28,10.28,0,0,0,0,1.11c0,.3-.12.45-.41.45h-3.14c-.25,0-.37-.11-.36-.36s0-.78,0-1.17.12-.46.45-.45Zm-31,2h-1.52c-.31,0-.43-.13-.42-.43a10.46,10.46,0,0,0,0-1.12c0-.32.12-.45.45-.45h2.94c.28,0,.42.1.45.41s0,.78,0,1.16-.13.43-.43.43C1581,903.84,1580.52,903.85,1580,903.85Zm-10.29,0h-.5c-1.67-.05-1.39.34-1.42-1.51,0-.34.13-.49.48-.48h1.92c1.7,0,1.42-.33,1.44,1.55v.05c0,.27-.11.4-.39.39Zm46.64,0h-1.52c-.3,0-.44-.13-.43-.42s0-.74,0-1.12.14-.45.46-.44h2c1.64,0,1.39-.27,1.42,1.47v.1c0,.3-.14.42-.43.42C1617.36,903.83,1616.87,903.84,1616.38,903.84Zm5.3,0h-.56c-1.67-.05-1.37.35-1.41-1.51,0-.35.13-.48.48-.47h1.93c1.65,0,1.41-.32,1.44,1.5,0,.39-.16.5-.52.48S1622.13,903.85,1621.68,903.85Zm-36.42,0v0a3.4,3.4,0,0,1-.45,0c-1.74-.09-1.43.36-1.46-1.51,0-.38.17-.5.52-.49h1.87c1.73,0,1.43-.33,1.46,1.57,0,.3-.12.43-.43.42Zm41.75,0v0h-1.32c-.74,0-.75,0-.73-.7a4.84,4.84,0,0,0,0-.76c0-.35.1-.48.46-.48.71,0,1.42,0,2.13,0,1.7,0,1.4-.34,1.43,1.6,0,.29-.14.37-.42.36C1628,903.79,1627.51,903.81,1627,903.81Zm-26.36,0h-1.56c-.34,0-.51-.11-.49-.47a8.51,8.51,0,0,0,0-1c0-.32.12-.46.45-.45h3c.29,0,.44.1.43.41s0,.78,0,1.17-.13.37-.4.36C1601.63,903.78,1601.14,903.79,1600.65,903.79Zm5.26,0h-.65c-1.62,0-1.35.31-1.38-1.51,0-.31.14-.42.43-.42h3c.29,0,.45.1.44.41s0,.78,0,1.17-.13.37-.4.36C1606.9,903.78,1606.4,903.79,1605.91,903.79Zm-10.45.06h-.41c-1.66,0-1.39.29-1.43-1.45,0-.44.17-.56.57-.54s1,0,1.57,0c1.76,0,1.44-.33,1.48,1.56,0,.34-.14.45-.46.44S1595.9,903.85,1595.46,903.85Zm-5-.06H1590c-1.45,0-1.45,0-1.38-1.45,0-.35.14-.49.49-.49.57,0,1.15,0,1.72,0,1.46,0,1.45,0,1.42,1.45,0,.36-.08.52-.48.49S1590.89,903.79,1590.45,903.79Zm-15.57-1.92h.45c1.64,0,1.36-.3,1.39,1.44,0,.34-.13.49-.48.48-.59,0-1.18,0-1.77,0-1.58,0-1.35.26-1.36-1.42a.34.34,0,0,1,0-.1c0-.28.13-.39.4-.39Z"/><path class="cls-8" d="M1645.59,933.41a56.46,56.46,0,0,0-11.51,1.36c-2.9.57-5.79,1.22-8.72,1.65a42.87,42.87,0,0,1-14.47-.22c-3.2-.62-6.4-1.24-9.62-1.81a61.89,61.89,0,0,0-8.82-.9,63.73,63.73,0,0,0-16.68,1.8,55.74,55.74,0,0,1-15.65,1.56,59.93,59.93,0,0,1-10.33-1.47q-4-.92-8.07-1.56c-.36-.05-.78.11-1.07-.27-.61.33-1.22,0-1.82,0a48.53,48.53,0,0,0-6,0,51.94,51.94,0,0,0-9.84,1.61c-.13,0-.32,0-.34.19s.2.2.33.26a6.07,6.07,0,0,1,.7.29,4.8,4.8,0,0,0,3.82.41,31.36,31.36,0,0,1,9.15-1,46.5,46.5,0,0,1,9.3,1.43,69.89,69.89,0,0,0,19.16,2,60.89,60.89,0,0,0,6.87-.63c3.75-.51,7.43-1.43,11.15-2.13a42.61,42.61,0,0,1,9.64-.62A65.11,65.11,0,0,1,1603.5,937a71.85,71.85,0,0,0,11.68,1.63,55.19,55.19,0,0,0,8.72-.12c2.81-.3,5.58-.84,8.36-1.35s5.39-1.16,8.12-1.53a38.1,38.1,0,0,1,8.8-.19,43.81,43.81,0,0,1,6.15,1,2.82,2.82,0,0,0,2-.26c.51-.26,1.06-.46,1.58-.7.15-.08.47,0,.4-.33s-.31-.22-.5-.25l-3.25-.55A57.59,57.59,0,0,0,1645.59,933.41Z"/><path class="cls-8" d="M1522.57,939.94a12.57,12.57,0,0,0,3.21,1.18,3.88,3.88,0,0,0,1.4-.18,32,32,0,0,1,9.54-1.06,41.3,41.3,0,0,1,7.66,1.14,90.28,90.28,0,0,0,11.64,2,70.68,70.68,0,0,0,10.89.18,98.82,98.82,0,0,0,14.3-2.3,43.81,43.81,0,0,1,9.81-1.07,48,48,0,0,1,8.1.94c3.53.65,7,1.45,10.58,1.94,2.07.28,4.16.46,6.26.57a55.12,55.12,0,0,0,7-.12,64.65,64.65,0,0,0,6.78-1c3.39-.63,6.77-1.33,10.16-1.92a36.82,36.82,0,0,1,8.65-.3,43.55,43.55,0,0,1,6.91,1.07A2.28,2.28,0,0,0,1657,941l2-.84c.1,0,.27,0,.24-.21s-.18-.12-.29-.15a56.31,56.31,0,0,0-5.92-1.17,58.36,58.36,0,0,0-7.12-.53,57,57,0,0,0-12.28,1.37c-1.6.34-3.2.7-4.81,1a53.26,53.26,0,0,1-7.87,1,55.61,55.61,0,0,1-15.68-1.65,63.56,63.56,0,0,0-9.81-1.53c-1.58-.13-3.17-.19-4.76-.2a61.25,61.25,0,0,0-13.43,1.52,77.32,77.32,0,0,1-10.89,1.81,51.24,51.24,0,0,1-9.67-.24c-4-.46-7.92-1.44-11.86-2.21a46.58,46.58,0,0,0-9.27-.94A51,51,0,0,0,1523,939.7.62.62,0,0,0,1522.57,939.94Z"/><path class="cls-8" d="M1566.78,875.16c.1.3.4.39.61.55a51.62,51.62,0,0,0,8.09,4.83,11.92,11.92,0,0,0,5.31.87c1,0,2.09-.07,3.14-.11,4.42-.19,8.85-.57,13.28-.42a94,94,0,0,1,12,.9,11.6,11.6,0,0,1,7,3.8,3.6,3.6,0,0,0,3.3,1l.1,0c1-.15,1.1-.27.87-1.3a7.07,7.07,0,0,0-3.16-4.25,19.77,19.77,0,0,0-7.31-2.84,57.81,57.81,0,0,0-14.67-1.24c-2.07.1-4.14.33-6.21.48a72.11,72.11,0,0,1-8.82.1,50.31,50.31,0,0,1-10.91-1.64c-.73-.2-1.44-.48-2.17-.72C1567.1,875.15,1567,875,1566.78,875.16Z"/></g><g id="Gebäude"><rect class="cls-9" x="406.3" y="963.75" width="35.2" height="406.22" transform="translate(-8.86 3.26) rotate(-0.44)"/><rect class="cls-7" x="418.85" y="985.75" width="7.54" height="26.78" transform="translate(-7.59 3.24) rotate(-0.44)"/><rect class="cls-7" x="419.22" y="1033.96" width="7.54" height="26.78" transform="translate(-7.96 3.25) rotate(-0.44)"/><rect class="cls-7" x="419.58" y="1082.16" width="7.54" height="26.78" transform="translate(-8.32 3.25) rotate(-0.44)"/><rect class="cls-7" x="419.95" y="1130.37" width="7.54" height="26.78" transform="translate(-8.69 3.26) rotate(-0.44)"/><rect class="cls-7" x="420.32" y="1178.58" width="7.54" height="26.78" transform="translate(-9.06 3.26) rotate(-0.44)"/><rect class="cls-7" x="420.68" y="1226.78" width="7.54" height="26.78" transform="translate(-9.42 3.26) rotate(-0.44)"/><rect class="cls-7" x="420.68" y="1270.78" width="7.54" height="26.78" transform="translate(-9.76 3.27) rotate(-0.44)"/><rect class="cls-7" x="420.68" y="1315.78" width="7.54" height="26.78" transform="translate(-10.1 3.27) rotate(-0.44)"/><rect class="cls-10" x="1446" y="386.29" width="189" height="118.76"/><polyline class="cls-10" points="1446 385.82 1540.5 361.75 1635 385.82"/><rect class="cls-7" x="1461.78" y="402.52" width="28.68" height="21.03"/><rect class="cls-7" x="1461.78" y="435.38" width="28.68" height="21.03"/><rect class="cls-7" x="1461.78" y="468.24" width="28.68" height="21.03"/><rect class="cls-7" x="1503.84" y="402.52" width="28.68" height="21.03"/><rect class="cls-7" x="1503.84" y="435.38" width="28.68" height="21.03"/><rect class="cls-7" x="1503.84" y="468.24" width="28.68" height="21.03"/><rect class="cls-7" x="1545.91" y="402.52" width="28.68" height="21.03"/><rect class="cls-7" x="1545.91" y="435.38" width="28.68" height="21.03"/><rect class="cls-7" x="1545.91" y="468.24" width="28.68" height="21.03"/><rect class="cls-7" x="1587.98" y="402.52" width="28.68" height="21.03"/><rect class="cls-7" x="1587.98" y="435.38" width="28.68" height="21.03"/><rect class="cls-7" x="1587.98" y="468.24" width="28.68" height="21.03"/><path class="cls-9" d="M1104.53,713V645.55l1.13-5.68.76-11,1.14-.76s-.38-6.44,3-8L1111,616l.38,4.17s4.17,1.13,3.79,8a3.83,3.83,0,0,0,.38,1.14l.37,2.28v8.33l1.52,5.68v22.36h1.52l4.54-5.3,4.93,5.3h2.65v-22l.38-1.13v-1.9L1133,641l-.38-8,.75-3.41.38-.38v-1.51s1.52-6.07,3.41-6.82c0,0,.38-4.55.76-4.55l.38,4.55s3,1.51,3,6.06a16.21,16.21,0,0,0,.38,1.89l.76,3,.38,8.34,1.13.38.38,2.65V713Z"/><path class="cls-7" d="M1109.07,652.38v-4.93c0-.76,1.52-2.65,2.28-2.65s2.27,1.89,2.27,2.27v5.31Z"/><path class="cls-7" d="M1108.28,665.64V659c0-1,2-3.58,3.07-3.58s3.07,2.55,3.07,3.07v7.16Z"/><path class="cls-7" d="M1136.36,652.38v-4.93c0-.76,1.51-2.65,2.27-2.65s2.27,1.89,2.27,2.27v5.31Z"/><path class="cls-7" d="M1135.56,665.64V659c0-1,2-3.58,3.07-3.58s3.07,2.55,3.07,3.07v7.16Z"/><path class="cls-7" d="M1121.92,684.2v-6.65c0-1,.42-3.58,3.07-3.58a3.09,3.09,0,0,1,3.07,3.07v7.16Z"/><path class="cls-7" d="M1118.75,701.33v-4a2,2,0,0,1,1.86-2.18,1.87,1.87,0,0,1,1.86,1.87v4.34Z"/><path class="cls-7" d="M1129,701.33v-4a2,2,0,0,1,1.86-2.18,1.88,1.88,0,0,1,1.87,1.87v4.34Z"/><rect class="cls-9" x="293.93" y="1102.1" width="79.07" height="68.67"/><rect class="cls-7" x="303.64" y="1133.31" width="25.66" height="31.91"/><rect class="cls-7" x="304.33" y="1107.65" width="12.48" height="19.42"/><rect class="cls-7" x="320.52" y="1107.65" width="13.18" height="19.42"/><rect class="cls-7" x="337.05" y="1107.65" width="13.18" height="19.42"/><rect class="cls-7" x="353.58" y="1107.65" width="13.18" height="19.42"/><rect class="cls-7" x="335.55" y="1133.31" width="31.21" height="31.91"/><polygon class="cls-9" points="293.93 1102.1 315.22 1091 349.43 1091 373 1102.1 293.93 1102.1"/><rect class="cls-9" x="1285.13" y="524" width="70.88" height="63"/><rect class="cls-7" x="1312.25" y="562.5" width="18.38" height="24.5"/><rect class="cls-7" x="1335.88" y="537.13" width="16.63" height="14"/><rect class="cls-7" x="1313.13" y="537.13" width="16.63" height="14"/><rect class="cls-7" x="1290.38" y="537.13" width="16.63" height="14"/><path class="cls-10" d="M1377.49,589.85l.44-52.35-3.93-5.23,38.39-41.88S1445.54,452,1459.5,452c12.21,0,48,39.36,48,39.36L1545,532.27l-3.8,5.38.31,52.2Z"/><circle class="cls-7" cx="1459.5" cy="472.07" r="6.11"/><rect class="cls-7" x="1447.29" y="490.39" width="22.68" height="19.19"/><rect class="cls-7" x="1422.86" y="490.39" width="15.7" height="19.19"/><rect class="cls-7" x="1478.69" y="490.39" width="15.7" height="19.19"/><rect class="cls-7" x="1447.29" y="518.31" width="22.68" height="19.19"/><rect class="cls-7" x="1422.86" y="518.31" width="15.7" height="19.19"/><rect class="cls-7" x="1396.68" y="518.31" width="15.7" height="19.19"/><rect class="cls-7" x="1478.69" y="518.31" width="15.7" height="19.19"/><rect class="cls-7" x="1503.12" y="518.31" width="15.7" height="19.19"/><rect class="cls-7" x="1447.29" y="546.22" width="22.68" height="19.19"/><rect class="cls-7" x="1396.68" y="546.22" width="34.9" height="19.19"/><rect class="cls-7" x="1478.69" y="546.22" width="15.7" height="19.19"/><rect class="cls-7" x="1482.18" y="546.22" width="36.64" height="19.19"/><rect class="cls-7" x="1422.86" y="546.22" width="15.7" height="19.19"/><rect class="cls-9" x="1241.11" y="1018.18" width="133.78" height="50.84" rx="8.52"/><rect class="cls-9" x="1241.11" y="1018.18" width="128.43" height="50.84"/><rect class="cls-9" x="1257.16" y="1003.01" width="104.35" height="15.16"/><rect class="cls-7" x="1265.19" y="1008.81" width="88.3" height="8.03"/><rect class="cls-7" x="1283.92" y="1008.81" width="20.51" height="8.03"/><rect class="cls-7" x="1309.78" y="1008.81" width="20.51" height="8.03"/><rect class="cls-7" x="1245.57" y="1021.74" width="115.95" height="8.03"/><rect class="cls-7" x="1283.92" y="1021.74" width="20.51" height="8.03"/><rect class="cls-7" x="1309.78" y="1021.74" width="20.51" height="8.03"/><rect class="cls-7" x="1335.65" y="1021.74" width="33" height="8.03"/><rect class="cls-7" x="1245.57" y="1033.78" width="107.92" height="8.03"/><rect class="cls-7" x="1245.57" y="1048.5" width="123.08" height="13.38"/><rect class="cls-7" x="1283.92" y="1033.78" width="20.51" height="8.03"/><rect class="cls-7" x="1309.78" y="1033.78" width="20.51" height="8.03"/><rect class="cls-7" x="1335.65" y="1033.78" width="33" height="8.03"/><rect class="cls-9" x="579.85" y="1164.16" width="85.53" height="74.84"/><rect class="cls-7" x="616.04" y="1211.86" width="14.8" height="26.32"/><rect class="cls-7" x="588.9" y="1211.86" width="23.85" height="18.92"/><rect class="cls-7" x="588.9" y="1201.17" width="68.26" height="7.4"/><rect class="cls-7" x="633.31" y="1211.86" width="23.85" height="18.92"/><rect class="cls-7" x="636.6" y="1171.56" width="20.56" height="18.92"/><rect class="cls-7" x="613.16" y="1171.56" width="20.56" height="18.92"/><rect class="cls-7" x="588.9" y="1171.56" width="20.56" height="18.92"/><polygon class="cls-9" points="579.85 1164.16 602.88 1151 639.89 1151 665.38 1164.16 579.85 1164.16"/><polyline class="cls-11" points="1256.14 1332.17 1261.12 1271.78 1262.07 1261.43 1282.62 1326.25 1260.09 1313.99 1271.95 1302.93 1261.67 1295.81 1267.2 1286.33 1263.25 1280.01"/><line class="cls-11" x1="1262.68" y1="1269.73" x2="1268.43" y2="1331.69"/><path class="cls-9" d="M1299.58,1331.6v-45s-6.33-2.32-7.49-3.77c0-2,.24-9.29.24-9.29s4.93-3.77,6.09-3.48,2.61-6.38,2.61-6.38V1132.46l5.51,131.24s2.33,5.51,3.2,5.8,5.51,3.19,5.51,3.48v9.29a66.66,66.66,0,0,1-6.67,3.48c-1.17.29,2,45.85,2,45.85"/><path class="cls-12" d="M1194.06,1382.71c45.53-52.2,79.59-61.16,103-58.72,40.42,4.23,58.8,43.53,122.24,58.72a196.65,196.65,0,0,0,58.71,4.81"/><rect class="cls-7" x="1293.98" y="1275.39" width="4.95" height="6.19"/><rect class="cls-7" x="1301.4" y="1275.39" width="4.95" height="6.19"/><rect class="cls-7" x="1308.83" y="1275.39" width="4.95" height="6.19"/><rect class="cls-9" x="459" y="974" width="128" height="90"/><rect class="cls-7" x="465" y="982" width="34" height="13"/><rect class="cls-7" x="505.5" y="982" width="34" height="13"/><rect class="cls-7" x="546" y="982" width="34" height="13"/><rect class="cls-7" x="465" y="1001.5" width="34" height="13"/><rect class="cls-7" x="505.5" y="1001.5" width="34" height="13"/><rect class="cls-7" x="546" y="1001.5" width="34" height="13"/><rect class="cls-7" x="465" y="1021.5" width="34" height="13"/><rect class="cls-7" x="505.5" y="1021.5" width="34" height="13"/><rect class="cls-7" x="546" y="1021.5" width="34" height="13"/><line class="cls-13" x1="459" y1="1054" x2="587" y2="1054"/><path class="cls-14" d="M468,1046c13.45.19,13.36-4.55,13.37-4.12s-13.35,5,.08,4.31,26.85-1.33,26.86-.9,13.36-4.54,13.43-.23,13.44-.24,13.44-.24,13.43-.66,13.44-.23,13.5,3.64,13.43-.24-12.07-.13-12.07-.13-2.79,4.27-2,4.47,27.48-8.55,27.48-8.12"/><path class="cls-9" d="M566,884V846.84l17.09-8.17v-26l2.23-5.95V791.85H596.5v13.38s58.7-3.72,67.62-5.21v-8.17l6.69-3,5.94,3v7.43s43.11,3,69.12,5.2V791.85H757v13.38l1.49,7.43v29l23,5.2V884Z"/><path class="cls-7" d="M731.75,841.64V826s-.75-3.71,4.46-3.71c4.46,0,4.46,3.71,4.46,3.71v15.61Z"/><path class="cls-7" d="M666.35,841.64V826s-.74-3.71,4.46-3.71c4.46,0,4.46,3.71,4.46,3.71v15.61Z"/><path class="cls-7" d="M664.91,882.51v-18.6s-.92-4.43,5.55-4.43c5.55,0,5.55,4.43,5.55,4.43v18.6Z"/><path class="cls-7" d="M598.77,882.51v-18.6s-.92-4.43,5.55-4.43c5.55,0,5.55,4.43,5.55,4.43v18.6Z"/><path class="cls-7" d="M731.79,882.51v-18.6s-.92-4.43,5.55-4.43c5.55,0,5.55,4.43,5.55,4.43v18.6Z"/><path class="cls-7" d="M684.19,882.51v-18.6s-.75-4.43,4.46-4.43c4.45,0,4.45,4.43,4.45,4.43v18.6Z"/><path class="cls-7" d="M648.52,882.51v-18.6s-.75-4.43,4.45-4.43c4.46,0,4.46,4.43,4.46,4.43v18.6Z"/><path class="cls-7" d="M635.14,882.51v-18.6s-.74-4.43,4.46-4.43c4.46,0,4.46,4.43,4.46,4.43v18.6Z"/><path class="cls-7" d="M621.76,882.51v-18.6s-.74-4.43,4.46-4.43c4.46,0,4.46,4.43,4.46,4.43v18.6Z"/><path class="cls-7" d="M697.56,882.51v-18.6s-.74-4.43,4.46-4.43c4.46,0,4.46,4.43,4.46,4.43v18.6Z"/><path class="cls-7" d="M710.94,882.51v-18.6s-.74-4.43,4.46-4.43c4.46,0,4.46,4.43,4.46,4.43v18.6Z"/><path class="cls-7" d="M754,882.51v-18.6s-.74-4.43,4.46-4.43c4.46,0,4.46,4.43,4.46,4.43v18.6Z"/><path class="cls-7" d="M767.42,882.51v-18.6s-.74-4.43,4.46-4.43c4.46,0,4.46,4.43,4.46,4.43v18.6Z"/><path class="cls-7" d="M570.49,882.51v-18.6s-.75-4.43,4.45-4.43c4.46,0,4.46,4.43,4.46,4.43v18.6Z"/><path class="cls-7" d="M583.86,882.51v-18.6s-.74-4.43,4.46-4.43c4.46,0,4.46,4.43,4.46,4.43v18.6Z"/><path class="cls-7" d="M601.7,841.64V826s-.75-3.71,4.46-3.71c4.46,0,4.46,3.71,4.46,3.71v15.61Z"/><path class="cls-7" d="M621.18,841.64v-3s-.9-17.09,19.24-17.09c19.24,0,19.24,16.35,19.24,16.35v3.71Z"/><path class="cls-7" d="M682.86,841.64v-3s-.9-17.09,19.24-17.09c19.24,0,19.24,16.35,19.24,16.35v3.71Z"/><rect class="cls-10" x="318.85" y="824.04" width="174.55" height="128.96"/><rect class="cls-7" x="323.77" y="901.7" width="4.99" height="8.55"/><rect class="cls-7" x="335.17" y="901.7" width="4.99" height="8.55"/><rect class="cls-7" x="346.57" y="901.7" width="4.99" height="8.55"/><rect class="cls-7" x="357.97" y="901.7" width="4.99" height="8.55"/><rect class="cls-7" x="369.37" y="901.7" width="4.99" height="8.55"/><rect class="cls-7" x="380.77" y="901.7" width="4.99" height="8.55"/><rect class="cls-7" x="392.17" y="901.7" width="4.99" height="8.55"/><rect class="cls-7" x="403.57" y="901.7" width="4.99" height="8.55"/><rect class="cls-7" x="414.96" y="901.7" width="4.99" height="8.55"/><rect class="cls-7" x="426.36" y="901.7" width="4.99" height="8.55"/><rect class="cls-7" x="437.76" y="901.7" width="4.99" height="8.55"/><rect class="cls-7" x="449.16" y="901.7" width="4.99" height="8.55"/><rect class="cls-7" x="460.56" y="901.7" width="4.99" height="8.55"/><rect class="cls-7" x="471.96" y="901.7" width="4.99" height="8.55"/><rect class="cls-7" x="483.36" y="901.7" width="4.99" height="8.55"/><rect class="cls-7" x="323.77" y="884.87" width="4.99" height="8.55"/><rect class="cls-7" x="335.17" y="884.87" width="4.99" height="8.55"/><rect class="cls-7" x="346.57" y="884.87" width="4.99" height="8.55"/><rect class="cls-7" x="357.97" y="884.87" width="4.99" height="8.55"/><rect class="cls-7" x="369.37" y="884.87" width="4.99" height="8.55"/><rect class="cls-7" x="380.77" y="884.87" width="4.99" height="8.55"/><rect class="cls-7" x="392.17" y="884.87" width="4.99" height="8.55"/><rect class="cls-7" x="403.57" y="884.87" width="4.99" height="8.55"/><rect class="cls-7" x="414.96" y="884.87" width="4.99" height="8.55"/><rect class="cls-7" x="426.36" y="884.87" width="4.99" height="8.55"/><rect class="cls-7" x="437.76" y="884.87" width="4.99" height="8.55"/><rect class="cls-7" x="449.16" y="884.87" width="4.99" height="8.55"/><rect class="cls-7" x="460.56" y="884.87" width="4.99" height="8.55"/><rect class="cls-7" x="471.96" y="884.87" width="4.99" height="8.55"/><rect class="cls-7" x="483.36" y="884.87" width="4.99" height="8.55"/><rect class="cls-7" x="323.77" y="868.03" width="4.99" height="8.55"/><rect class="cls-7" x="335.17" y="868.03" width="4.99" height="8.55"/><rect class="cls-7" x="346.57" y="868.03" width="4.99" height="8.55"/><rect class="cls-7" x="357.97" y="868.03" width="4.99" height="8.55"/><rect class="cls-7" x="369.37" y="868.03" width="4.99" height="8.55"/><rect class="cls-7" x="380.77" y="868.03" width="4.99" height="8.55"/><rect class="cls-7" x="392.17" y="868.03" width="4.99" height="8.55"/><rect class="cls-7" x="403.57" y="868.03" width="4.99" height="8.55"/><rect class="cls-7" x="414.96" y="868.03" width="4.99" height="8.55"/><rect class="cls-7" x="426.36" y="868.03" width="4.99" height="8.55"/><rect class="cls-7" x="437.76" y="868.03" width="4.99" height="8.55"/><rect class="cls-7" x="449.16" y="868.03" width="4.99" height="8.55"/><rect class="cls-7" x="460.56" y="868.03" width="4.99" height="8.55"/><rect class="cls-7" x="471.96" y="868.03" width="4.99" height="8.55"/><rect class="cls-7" x="483.36" y="868.03" width="4.99" height="8.55"/><rect class="cls-7" x="323.77" y="851.19" width="4.99" height="8.55"/><rect class="cls-7" x="335.17" y="851.19" width="4.99" height="8.55"/><rect class="cls-7" x="346.57" y="851.19" width="4.99" height="8.55"/><rect class="cls-7" x="357.97" y="851.19" width="4.99" height="8.55"/><rect class="cls-7" x="369.37" y="851.19" width="4.99" height="8.55"/><rect class="cls-7" x="380.77" y="851.19" width="4.99" height="8.55"/><rect class="cls-7" x="392.17" y="851.19" width="4.99" height="8.55"/><rect class="cls-7" x="403.57" y="851.19" width="4.99" height="8.55"/><rect class="cls-7" x="414.96" y="851.19" width="4.99" height="8.55"/><rect class="cls-7" x="426.36" y="851.19" width="4.99" height="8.55"/><rect class="cls-7" x="437.76" y="851.19" width="4.99" height="8.55"/><rect class="cls-7" x="449.16" y="851.19" width="4.99" height="8.55"/><rect class="cls-7" x="460.56" y="851.19" width="4.99" height="8.55"/><rect class="cls-7" x="471.96" y="851.19" width="4.99" height="8.55"/><rect class="cls-7" x="483.36" y="851.19" width="4.99" height="8.55"/><rect class="cls-7" x="324.19" y="923.59" width="24.41" height="14.94"/><rect class="cls-7" x="354.5" y="923.59" width="24.41" height="14.94"/><rect class="cls-7" x="394.9" y="923.59" width="24.41" height="14.94"/><rect class="cls-7" x="427.74" y="923.59" width="24.41" height="14.94"/><rect class="cls-7" x="460.57" y="923.59" width="24.41" height="14.94"/><polygon class="cls-9" points="874.69 804.52 865.3 813.91 959.21 813.91 949.82 804.52 874.69 804.52"/><rect class="cls-9" x="865.3" y="813.91" width="93.91" height="41.74"/><path class="cls-9" d="M879.06,818V789.08l-2.81-5.62c-.36-3.43-.45-7-.81-10.45,0-.45-.35-.75-.4-1.2,1.67-2.78,5.6-7.2,6-13.66.4-6-.4-22.5,18.08-22.5,14.86,0,16.07,22.1,16.07,22.1s2,10.44,6.43,13.26a11.39,11.39,0,0,0-.81,1.6v10.45c-.94,2.14-1.87,4.28-2.81,6.43V818Z"/><polygon class="cls-7" points="877.86 773.42 877.86 778.45 884.28 778.64 884.28 773.42 877.86 773.42"/><polygon class="cls-7" points="885.89 773.42 885.89 778.45 892.72 778.64 892.72 773.42 885.89 773.42"/><polygon class="cls-7" points="893.92 773.42 893.92 778.45 900.75 778.64 900.75 773.42 893.92 773.42"/><polygon class="cls-7" points="902.76 773.42 902.76 778.45 908.79 778.64 908.79 773.42 902.76 773.42"/><polygon class="cls-7" points="910.4 773.42 910.4 778.45 915.62 778.64 915.62 773.42 910.4 773.42"/><rect class="cls-7" x="889.1" y="785.87" width="2.41" height="2.41"/><rect class="cls-7" x="890.31" y="795.91" width="2.41" height="6.43"/><rect class="cls-7" x="895.53" y="795.91" width="2.41" height="6.43"/><rect class="cls-7" x="903.97" y="795.91" width="2.41" height="6.43"/><rect class="cls-7" x="908.79" y="795.91" width="2.41" height="6.43"/><rect class="cls-7" x="883.88" y="785.87" width="1.21" height="2.41"/><rect class="cls-7" x="880.27" y="785.87" width="1.21" height="2.41"/><rect class="cls-7" x="880.27" y="795.91" width="1.21" height="6.43"/><rect class="cls-7" x="883.88" y="795.91" width="1.21" height="6.43"/><rect class="cls-7" x="896.34" y="785.87" width="2.41" height="2.41"/><rect class="cls-7" x="903.57" y="785.87" width="2.41" height="2.41"/><rect class="cls-7" x="909.99" y="785.87" width="2.41" height="2.41"/><path class="cls-10" d="M916.14,761.39c-.62-2.08-.92-3.64-.92-3.64s-1.21-22.1-16.07-22.1c-18.48,0-17.68,16.47-18.08,22.5a18.27,18.27,0,0,1-.53,3.24Z"/><rect class="cls-7" x="872.17" y="812.69" width="4.17" height="8.35"/><rect class="cls-7" x="872.6" y="832.7" width="20.87" height="13.57"/><rect class="cls-7" x="900.78" y="832.7" width="20.87" height="13.57"/><rect class="cls-7" x="928.95" y="832.7" width="20.87" height="13.57"/><rect class="cls-7" x="882.67" y="812.87" width="4.17" height="8.35"/><rect class="cls-7" x="893.16" y="812.87" width="4.17" height="8.35"/><rect class="cls-7" x="903.66" y="812.87" width="4.17" height="8.35"/><rect class="cls-7" x="914.16" y="812.87" width="4.17" height="8.35"/><rect class="cls-7" x="924.65" y="812.87" width="4.17" height="8.35"/><rect class="cls-7" x="935.15" y="812.87" width="4.17" height="8.35"/><rect class="cls-7" x="945.65" y="812.87" width="4.17" height="8.35"/><rect class="cls-7" x="872.6" y="827.48" width="20.87" height="18.78" rx="5.95"/><rect class="cls-7" x="900.78" y="827.48" width="20.87" height="18.78" rx="5.95"/><rect class="cls-7" x="928.95" y="827.48" width="20.87" height="18.78" rx="5.95"/><rect class="cls-9" x="1101.57" y="809.3" width="142.43" height="76.7"/><rect class="cls-9" x="1101.57" y="782.52" width="43.83" height="32.87"/><path class="cls-7" d="M1117,844.61v-18s-1.06-4.29,6.39-4.29c6.38,0,6.38,4.29,6.38,4.29v18Z"/><path class="cls-7" d="M1114.34,878.7V864.09s-1.52-7.68,9.09-7.68c11,0,9.09,7.68,9.09,7.68V878.7Z"/><path class="cls-7" d="M1154.69,844.61v-18s-1.07-4.29,6.38-4.29c6.39,0,6.39,4.29,6.39,4.29v18Z"/><path class="cls-7" d="M1177,844.61v-18s-1.07-4.29,6.38-4.29c6.38,0,6.38,4.29,6.38,4.29v18Z"/><path class="cls-7" d="M1199.33,844.61v-18s-1.07-4.29,6.38-4.29c6.38,0,6.38,4.29,6.38,4.29v18Z"/><path class="cls-7" d="M1221.64,844.61v-18s-1.06-4.29,6.39-4.29c6.38,0,6.38,4.29,6.38,4.29v18Z"/><path class="cls-7" d="M1152,878.7V864.09s-1.52-7.68,9.09-7.68c9.1,0,9.1,7.68,9.1,7.68V878.7Z"/><path class="cls-7" d="M1174.31,878.7V864.09s-1.52-7.68,9.09-7.68c9.09,0,9.09,7.68,9.09,7.68V878.7Z"/><path class="cls-7" d="M1196.63,878.7V864.09s-1.52-7.68,9.09-7.68c9.09,0,9.09,7.68,9.09,7.68V878.7Z"/><path class="cls-7" d="M1219,878.7V864.09s-1.52-7.68,9.09-7.68c9.09,0,9.09,7.68,9.09,7.68V878.7Z"/><circle class="cls-7" cx="1123.13" cy="792.87" r="6.7"/><polygon class="cls-9" points="1097.91 774 1149.04 774 1145.39 782.52 1101.57 782.52 1097.91 774"/><rect class="cls-9" x="1203" y="600.62" width="144" height="94.34"/><rect class="cls-7" x="1212.1" y="612.2" width="14.9" height="38.07" rx="5.75"/><rect class="cls-7" x="1228.66" y="612.2" width="14.9" height="38.07" rx="5.75"/><rect class="cls-7" x="1245.21" y="612.2" width="14.9" height="38.07" rx="5.75"/><rect class="cls-7" x="1261.76" y="612.2" width="14.9" height="38.07" rx="5.75"/><rect class="cls-7" x="1278.31" y="612.2" width="14.9" height="38.07" rx="5.75"/><rect class="cls-7" x="1294.86" y="612.2" width="14.9" height="38.07" rx="5.75"/><rect class="cls-7" x="1311.41" y="612.2" width="14.9" height="38.07" rx="5.75"/><rect class="cls-7" x="1327.97" y="612.2" width="14.9" height="38.07" rx="5.75"/><path class="cls-7" d="M1203.32,612.22v38a7.47,7.47,0,0,0,7.13-7.44V619.65A7.46,7.46,0,0,0,1203.32,612.22Z"/><rect class="cls-7" x="1212" y="660" width="36" height="23"/><rect class="cls-7" x="1257" y="660" width="36" height="23"/><rect class="cls-7" x="1302" y="660" width="36" height="23"/><polygon class="cls-9" points="735 605 595 605 598.92 608.92 598.61 608.92 598.61 695 730 695 730 610 735 605"/><rect class="cls-7" x="610.56" y="615" width="20" height="20"/><rect class="cls-7" x="640.56" y="615" width="20" height="20"/><rect class="cls-7" x="670.56" y="615" width="20" height="20"/><rect class="cls-7" x="700.56" y="615" width="20" height="20"/><rect class="cls-7" x="610.56" y="645" width="20" height="20"/><rect class="cls-7" x="640.56" y="645" width="20" height="20"/><rect class="cls-7" x="670.56" y="645" width="20" height="20"/><rect class="cls-7" x="700.56" y="645" width="20" height="20"/><rect class="cls-7" x="680.56" y="675" width="30" height="20"/><g id="ZyY5vx.tif"><path class="cls-15" d="M897.08,613.64h.72c5.3,4.81,11.87,7.86,17.59,12.62L901,636.1c7.16-.23,13.7,2.34,20.61,2.37,8.23,0,16.23-1.81,24.4-1.81.12,0,.24-.34.45-.65l-14.22-9.62c.95-1.52,2.36-2,3.49-2.87,4.57-3.4,9.75-6,14-9.88h.72l18.47,12.57-15.31,10.17c10.51,1,20.25,2.55,30.11,1.89a24.86,24.86,0,0,1,3.23,0c.88.05,2.21-.37,2.27,1,0,1.11,1,2.76-1,3.26-1.31.33-1.06,1-.61,1.84,2.76,5.09,4.74,10.61,8.2,15.33V673.4c-1.91,2.05-4.21,2.69-7,2.69q-65-.12-129.92,0c-2.83,0-5.14-.63-7-2.69V659.72c3.45-4.73,5.42-10.25,8.21-15.34.65-1.2.22-1.51-1-2-1.49-.55-.7-2.07-.68-3.15s1.14-1,1.94-1c10.06-.1,20.15.45,30.13-1.45,1-.19,2.1.38,3.29-.65l-15.06-10Zm26.85,28.93c-2.87,0-5.75,0-8.63,0-2.33,0-3.58,1-3.55,3.43.06,3.83,0,7.67,0,11.5,0,2.53,1.27,3.67,3.8,3.65,5.39,0,10.79-.06,16.18,0,2.75,0,3.92-1.26,3.89-3.93,0-3.71,0-7.43,0-11.14,0-2.42-1.09-3.53-3.47-3.51C929.44,642.59,926.69,642.57,923.93,642.57Zm26.54,0c-2.88,0-5.76,0-8.64,0-2.2,0-3.34,1-3.32,3.28q0,5.76,0,11.52c0,2.75,1.35,3.83,4,3.79q7.74-.12,15.48,0c2.91,0,4.14-1.34,4.1-4.16-.06-3.6-.1-7.2,0-10.8.06-2.65-1.21-3.68-3.73-3.63S953.11,642.57,950.47,642.58Zm-53.31,0c-2.88,0-5.76,0-8.64,0-2,0-3.18.91-3.18,3,0,4-.05,7.92,0,11.88,0,2.29,1.13,3.61,3.51,3.62,5.52,0,11,0,16.56,0,2.4,0,3.5-1.24,3.5-3.56,0-4,0-7.92,0-11.88,0-2.09-1.07-3.09-3.1-3.11C902.92,642.56,900,642.58,897.16,642.58Zm15.67-16.44c-5.09-3.43-9.75-6.55-14.38-9.7a1.78,1.78,0,0,0-2.27-.11c-4.85,3.22-9.72,6.4-14.89,9.81,5.13,3.38,9.83,6.45,14.49,9.58a2.23,2.23,0,0,0,2.89,0C903.19,632.6,907.77,629.56,912.83,626.14Zm53.3,0c-5.22-3.44-10-6.58-14.77-9.75a1.77,1.77,0,0,0-2.27,0c-4.71,3.21-9.46,6.37-14.5,9.76,5,3.36,9.55,6.39,14.06,9.53a2.41,2.41,0,0,0,3.18-.07C956.39,632.52,961,629.53,966.13,626.15Zm-94.25,31.71c0,3.83,0,7.67,0,11.5,0,3,1.63,4,4.33,3.89s6.08.78,6.18-3.44c.18-8,.07-16,.07-24.08,0-2.06-1.12-3.06-3.12-3.14-1.07,0-2.16,0-3.23,0-3-.21-4.42,1-4.26,4.16C872,650.42,871.88,654.14,871.88,657.86Zm103.67.06h0c0-3.95-.06-7.91,0-11.86,0-2.47-1.13-3.49-3.47-3.49h-3.59c-2.33,0-3.57,1-3.56,3.45,0,7.78,0,15.57,0,23.36,0,3.87,2.64,3.89,5.46,3.88s5.15-.19,5.11-3.84C975.52,665.59,975.55,661.75,975.55,657.92Zm-106.5-5.85c0-2.15.08-4.3,0-6.44,0-1,.7-2.8-1.06-2.92s-3.91-1.15-5.1,1.21c-1.76,3.51-3.62,7-5.17,10.61-1.19,2.78.15,5.87,2.74,6.38s5.76,1,8-.23c1.54-.86.39-3.76.57-5.74C869.12,654,869.05,653,869.05,652.07Zm113.22,9.07c6.45,0,9.1-2.28,7.53-6.39a120.81,120.81,0,0,0-5.3-10.93c-1.11-2.2-3.17-1.14-4.8-1.16-1.91,0-1.28,1.69-1.3,2.73-.07,3.82.26,7.67-.1,11.45S979.23,661.92,982.27,661.14Z"/><path class="cls-15" d="M975.93,678.44c1.19,0,2.38-.06,3.57,0,1,.07,2.38-.56,3,.47s-.2,2.32-.79,3.33a6.78,6.78,0,0,1-12-1c-.9-2.19-.39-3.08,2-2.87,1.41.12,2.85,0,4.28,0Z"/><path class="cls-15" d="M948,685.55a7,7,0,0,1-5.14-2.22c-1-1.18-2.06-2.68-1.53-4.16s2.29-.6,3.48-.67c2.49-.14,5,0,7.49-.09,2.2-.12,2.75.58,1.93,2.66C953.05,684,950.84,685.22,948,685.55Z"/><path class="cls-15" d="M871.63,678.46c1.31,0,2.62,0,3.94,0,3.06.06,3.53.86,2.12,3.55a6.73,6.73,0,0,1-9.57,2.44c-1.85-1.16-3.34-3-2.89-5s2.8-.61,4.25-1a8.56,8.56,0,0,1,2.15,0Z"/><path class="cls-15" d="M899.72,678.46c1.2,0,2.4-.08,3.59,0,1,.08,2.38-.57,3,.53.66,1.27-.16,2.59-.91,3.65a6.36,6.36,0,0,1-6.23,2.8,6.47,6.47,0,0,1-5.65-4.35c-.73-1.93-.38-2.92,1.95-2.7,1.42.14,2.87,0,4.3,0Z"/><path class="cls-15" d="M967.52,682.74h-9c-.92,0-2.1.18-1.66-1.41.3-1.1-.47-2.87,1.72-2.86s4.29-.06,6.43,0C968,678.58,966.31,681.17,967.52,682.74Z"/><path class="cls-15" d="M890.86,682.74c-2.73,0-5.46,0-8.19,0-.77,0-2.25.56-2-1,.15-1.21-.31-3.15,1.89-3.21a46.62,46.62,0,0,1,6.79,0C891.93,678.84,889.73,681.39,890.86,682.74Z"/></g><g id="bZtJ8I.tif"><path class="cls-15" d="M591.85,1069.2m13.64-5.14c.59,0,1.15.11,1.58-.65,1.84-3.25,5-4,8.4-4.05q20.94,0,41.88,0c1.66,0,3.39.42,4.47-1.6.44-.83,1.69-.83,2.69-.83q26.38,0,52.76,0a3.41,3.41,0,0,1,2.82,1.14c1,1.28,2.25,1.34,3.69,1.33q12.88-.06,25.76,0c4.6,0,7.47,2.62,8,7.28a208.39,208.39,0,0,1,.85,43.46c-.1,1.19-.4,1.69-1.71,1.69q-14.65-.08-29.31,0c-1.16,0-1.5-.38-1.66-1.52a12,12,0,0,0-23.87-.16c-.19,1.34-.65,1.7-2,1.7q-25.75,0-51.51,0c-1.33,0-1.7-.39-1.87-1.73a12.08,12.08,0,0,0-11.83-10.4,12,12,0,0,0-12,10.16c-.24,1.59-.82,2-2.37,2-5.79,0-11.58.05-17.38.08-2.87,0-4-1.1-4.14-4-.47-11.19-.25-22.33,2.52-33.27a30.63,30.63,0,0,1,2.64-7m70-3.59h0c-5,0-10,0-15.07,0-1.32,0-1.83.29-1.82,1.73q.12,9,0,18c0,1.48.45,1.89,1.9,1.88q14.85-.09,29.72,0c1.43,0,1.91-.34,1.89-1.84q-.12-9,0-18c0-1.39-.41-1.79-1.77-1.77C683.91,1064.11,679,1064.07,674,1064.07Zm34.73,0c-4.6,0-9.2,0-13.8,0-1.41,0-1.95.34-1.93,1.85q.12,9,0,18c0,1.39.42,1.78,1.78,1.78q13.69-.09,27.4,0c1.42,0,1.93-.33,1.91-1.84q-.12-9,0-18c0-1.38-.39-1.8-1.76-1.78C717.8,1064.12,713.27,1064.07,708.73,1064.07Zm-68.4,21.56c4.25,0,8.51,0,12.77,0,1.25,0,1.72-.35,1.71-1.65q-.07-9.21,0-18.42c0-1.21-.46-1.54-1.61-1.53q-12.76.06-25.54,0c-1.15,0-1.58.34-1.58,1.54q.07,9.21,0,18.43c0,1.31.44,1.65,1.69,1.63C632,1085.59,636.14,1085.63,640.33,1085.63Zm100.44-2.4c4.25,0,8.5,0,12.75,0,1.11,0,1.64-.22,1.59-1.48-.1-2.29,0-4.6-.05-6.9a3,3,0,0,0-3.11-3.21c-8,0-16,0-24,0-1.08,0-1.47.4-1.45,1.48,0,2.85.07,5.71,0,8.56,0,1.21.41,1.54,1.57,1.53C732.27,1083.19,736.52,1083.23,740.77,1083.23ZM619,1078.55c0-2.72,0-5.44,0-8.15,0-1-.19-1.53-1.36-1.5-2.79.07-5.58,0-8.36,0a1.45,1.45,0,0,0-1.65,1.19,67.77,67.77,0,0,0-2.9,16.41c-.06,1.08.26,1.48,1.38,1.46q5.74-.08,11.5,0c1.13,0,1.42-.42,1.39-1.48C618.92,1083.85,619,1081.2,619,1078.55Zm120.91-9.63c3.76,0,7.52,0,11.27,0,1.25,0,2.27,0,2.05-1.71-.18-1.45.32-3.23-2.15-3.21q-11.49.12-23,.09c-2.38,0-1.42,1.7-1.58,2.8s0,2.1,1.69,2C732.06,1068.84,736,1068.92,739.87,1068.92Z"/><path class="cls-15" d="M724.07,1112a10.18,10.18,0,1,1-10-10.28A10.25,10.25,0,0,1,724.07,1112Zm-10.24,7a7.05,7.05,0,0,0,.23-14.1,7.05,7.05,0,1,0-.23,14.1Z"/><path class="cls-15" d="M624.43,1112a10.17,10.17,0,1,1,10.28,10.18A10.2,10.2,0,0,1,624.43,1112Zm17.21.07a6.93,6.93,0,0,0-6.91-7.12,7.05,7.05,0,1,0,6.91,7.12Z"/></g><rect class="cls-9" x="982.28" y="733.51" width="35.2" height="406.22" transform="translate(70.89 1943.6) rotate(-90.44)"/><rect class="cls-7" x="828.4" y="924.51" width="7.54" height="26.78" transform="translate(-99.37 1777.18) rotate(-90.44)"/><rect class="cls-7" x="876.6" y="924.14" width="7.54" height="26.78" transform="translate(-50.43 1825.01) rotate(-90.44)"/><rect class="cls-7" x="924.81" y="923.77" width="7.54" height="26.78" transform="translate(-1.49 1872.85) rotate(-90.44)"/><rect class="cls-7" x="973.02" y="923.41" width="7.54" height="26.78" transform="translate(47.45 1920.68) rotate(-90.44)"/><rect class="cls-7" x="1021.22" y="923.04" width="7.54" height="26.78" transform="translate(96.39 1968.52) rotate(-90.44)"/><rect class="cls-7" x="1069.43" y="922.67" width="7.54" height="26.78" transform="translate(145.33 2016.36) rotate(-90.44)"/><rect class="cls-7" x="1113.43" y="922.67" width="7.54" height="26.78" transform="translate(189.67 2060.35) rotate(-90.44)"/><rect class="cls-7" x="1158.43" y="922.67" width="7.54" height="26.78" transform="translate(235.01 2105.35) rotate(-90.44)"/></g><g id="Baum"><path class="cls-16" d="M1108.07,1374.44h17.13l-13.87-14.68h10.2l-12.64-14.68h8.56l-11.83-13.87-10.6,13.87h8.16l-12.64,14.68h9.38l-12.24,14.68h20.39Z"/><rect class="cls-16" x="1103.59" y="1374.45" width="4.49" height="8.55"/><path class="cls-12" d="M1127.44,1350.64l-.07.09C1127.49,1350.62,1127.52,1350.57,1127.44,1350.64Z"/><path class="cls-12" d="M1132,1350l1.6-.4h0a8.08,8.08,0,0,1-3.78-.52l0,.07C1130,1350,1132,1350,1132,1350Z"/><path class="cls-12" d="M1137,1352l.73.73c.08-.07.17-.13.24-.2a7.51,7.51,0,0,1-1.77-3.8c-.19.09-.33.16-.47.21a1,1,0,0,0-.38.22l.65-.16Z"/><path class="cls-12" d="M1128.56,1349.14l-1,1.29,1.06-1.09Z"/><path class="cls-12" d="M1153.84,1338.11a1.3,1.3,0,0,0-.15-.23c-.54-.47-.43-1-.28-1.62a7,7,0,0,0-3.91-8c-.62-.28-1.3-.4-2-.62a.72.72,0,0,1-.41-.31,7,7,0,0,0-2.4-3,6.48,6.48,0,0,0-3.23-1.26,7,7,0,0,0-4.52.91c-1.77-2.68-4.21-4-7.44-3.49s-5.08,2.66-5.81,5.77a19.79,19.79,0,0,0-2,.13,7,7,0,0,0-5.89,7.1.75.75,0,0,1-.36.73,6.54,6.54,0,0,0-2.25,2.69,6.88,6.88,0,0,0,.45,6.85,15.56,15.56,0,0,0,1.23,1.48.89.89,0,0,1,.24.52,7.1,7.1,0,0,0,7.91,7.13,11.87,11.87,0,0,0,2.15-.6.64.64,0,0,1,.17,0,.73.73,0,0,1,.4.09c.58-.56,1.35-1.28,1.63-1.57l.07-.09h0c-.14.11,0,0,.16-.21l1-1.29.1.2.34-.34s.64-.65.82.07a8.08,8.08,0,0,0,3.78.52h0l1.75-.44a1,1,0,0,1,.38-.22c.14,0,.28-.12.47-.21a7.51,7.51,0,0,0,1.77,3.8c-.07.07-.16.13-.24.2l1.32,1.32.25-.24a15.3,15.3,0,0,0,2.1.83,7.1,7.1,0,0,0,8.87-5.79.66.66,0,0,1,.3-.42,7.11,7.11,0,0,0,3.27-10.32Z"/><path class="cls-12" d="M1127.44,1350.64h0l.16-.21C1127.4,1350.64,1127.3,1350.75,1127.44,1350.64Z"/><path class="cls-12" d="M1135.45,1354.17c-.49.17-.86,0-.9-.53a9,9,0,0,1,.08-1.87c.09-.68.3-1.33.42-2a1,1,0,0,1,.3-.61l-1.75.44a4.37,4.37,0,0,1-.11.62,16.77,16.77,0,0,1-.63,2c-.28.67-.8.72-1.23.13-.6-.85-1.13-1.74-1.68-2.63-.14-.23-.24-.49-.37-.74l.24.08c-.18-.72-.82-.07-.82-.07l-.34.34c.42.88.83,1.75,1.29,2.69a4.9,4.9,0,0,1-2.77-1l.19-.26c-.28.29-1,1-1.63,1.57l0,0c1,.55,1.92,1.09,2.89,1.61a1.15,1.15,0,0,0,.63.14c.42,0,.45.19.46.51.06,1.71.15,3.42.22,5.14a17.44,17.44,0,0,1-.44,4.44l-1,4.3a2.48,2.48,0,0,0,0,.27h8.5c-.39-2-.8-3.88-1.17-5.83a17.46,17.46,0,0,1,.17-4.84,3.65,3.65,0,0,1,1.38-2.5c.56-.5,1.09-1,1.63-1.51l-1.32-1.32A6.94,6.94,0,0,1,1135.45,1354.17Z"/><path class="cls-16" d="M1139.07,1302.44h17.13l-13.87-14.68h10.2l-12.64-14.68h8.56l-11.83-13.87-10.6,13.87h8.16l-12.64,14.68h9.38l-12.24,14.68h20.39Z"/><rect class="cls-16" x="1134.59" y="1302.45" width="4.49" height="8.55"/><path class="cls-12" d="M1158.44,1278.64l-.07.09C1158.49,1278.62,1158.52,1278.57,1158.44,1278.64Z"/><path class="cls-12" d="M1163,1278l1.6-.4h0a8.08,8.08,0,0,1-3.78-.52l0,.07C1161,1278,1163,1278,1163,1278Z"/><path class="cls-12" d="M1168,1280l.73.73c.08-.07.17-.13.24-.2a7.51,7.51,0,0,1-1.77-3.8c-.19.09-.33.16-.47.21a1,1,0,0,0-.38.22l.65-.16Z"/><path class="cls-12" d="M1159.56,1277.14l-1,1.29,1.06-1.09Z"/><path class="cls-12" d="M1184.84,1266.11a1.3,1.3,0,0,0-.15-.23c-.54-.47-.43-1-.28-1.62a7,7,0,0,0-3.91-8c-.62-.28-1.3-.4-2-.62a.72.72,0,0,1-.41-.31,7,7,0,0,0-2.4-3,6.48,6.48,0,0,0-3.23-1.26,7,7,0,0,0-4.52.91c-1.77-2.68-4.21-4-7.44-3.49s-5.08,2.66-5.81,5.77a19.79,19.79,0,0,0-2,.13,7,7,0,0,0-5.89,7.1.75.75,0,0,1-.36.73,6.54,6.54,0,0,0-2.25,2.69,6.88,6.88,0,0,0,.45,6.85,15.56,15.56,0,0,0,1.23,1.48.89.89,0,0,1,.24.52,7.1,7.1,0,0,0,7.91,7.13,11.87,11.87,0,0,0,2.15-.6.64.64,0,0,1,.17,0,.73.73,0,0,1,.4.09c.58-.56,1.35-1.28,1.63-1.57l.07-.09h0c-.14.11,0,0,.16-.21l1-1.29.1.2.34-.34s.64-.65.82.07a8.08,8.08,0,0,0,3.78.52h0l1.75-.44a1,1,0,0,1,.38-.22c.14,0,.28-.12.47-.21a7.51,7.51,0,0,0,1.77,3.8c-.07.07-.16.13-.24.2l1.32,1.32.25-.24a15.3,15.3,0,0,0,2.1.83,7.1,7.1,0,0,0,8.87-5.79.66.66,0,0,1,.3-.42,7.11,7.11,0,0,0,3.27-10.32Z"/><path class="cls-12" d="M1158.44,1278.64h0l.16-.21C1158.4,1278.64,1158.3,1278.75,1158.44,1278.64Z"/><path class="cls-12" d="M1166.45,1282.17c-.49.17-.86,0-.9-.53a9,9,0,0,1,.08-1.87c.09-.68.3-1.33.42-2a1,1,0,0,1,.3-.61l-1.75.44a4.37,4.37,0,0,1-.11.62,16.77,16.77,0,0,1-.63,2c-.28.67-.8.72-1.23.13-.6-.85-1.13-1.74-1.68-2.63-.14-.23-.24-.49-.37-.74l.24.08c-.18-.72-.82-.07-.82-.07l-.34.34c.42.88.83,1.75,1.29,2.69a4.9,4.9,0,0,1-2.77-1l.19-.26c-.28.29-1,1-1.63,1.57l0,0c1,.55,1.92,1.09,2.89,1.61a1.15,1.15,0,0,0,.63.14c.42,0,.45.19.46.51.06,1.71.15,3.42.22,5.14a17.44,17.44,0,0,1-.44,4.44l-1,4.3a2.48,2.48,0,0,0,0,.27h8.5c-.39-2-.8-3.88-1.17-5.83a17.46,17.46,0,0,1,.17-4.84,3.65,3.65,0,0,1,1.38-2.5c.56-.5,1.09-1,1.63-1.51l-1.32-1.32A6.94,6.94,0,0,1,1166.45,1282.17Z"/><path class="cls-16" d="M1081.07,1320.44h17.13l-13.87-14.68h10.2l-12.64-14.68h8.56l-11.83-13.87-10.6,13.87h8.16l-12.64,14.68h9.38l-12.24,14.68h20.39Z"/><rect class="cls-16" x="1076.59" y="1320.45" width="4.49" height="8.55"/><path class="cls-12" d="M1100.44,1296.64l-.07.09C1100.49,1296.62,1100.52,1296.57,1100.44,1296.64Z"/><path class="cls-12" d="M1105,1296l1.6-.4h0a8.08,8.08,0,0,1-3.78-.52l0,.07C1103,1296,1105,1296,1105,1296Z"/><path class="cls-12" d="M1110,1298l.73.73c.08-.07.17-.13.24-.2a7.51,7.51,0,0,1-1.77-3.8c-.19.09-.33.16-.47.21a1,1,0,0,0-.38.22l.65-.16Z"/><path class="cls-12" d="M1101.56,1295.14l-1,1.29,1.06-1.09Z"/><path class="cls-12" d="M1126.84,1284.11a1.3,1.3,0,0,0-.15-.23c-.54-.47-.43-1-.28-1.62a7,7,0,0,0-3.91-8c-.62-.28-1.3-.4-2-.62a.72.72,0,0,1-.41-.31,7,7,0,0,0-2.4-3,6.48,6.48,0,0,0-3.23-1.26,7,7,0,0,0-4.52.91c-1.77-2.68-4.21-4-7.44-3.49s-5.08,2.66-5.81,5.77a19.79,19.79,0,0,0-2,.13,7,7,0,0,0-5.89,7.1.75.75,0,0,1-.36.73,6.54,6.54,0,0,0-2.25,2.69,6.88,6.88,0,0,0,.45,6.85,15.56,15.56,0,0,0,1.23,1.48.89.89,0,0,1,.24.52,7.1,7.1,0,0,0,7.91,7.13,11.87,11.87,0,0,0,2.15-.6.64.64,0,0,1,.17,0,.73.73,0,0,1,.4.09c.58-.56,1.35-1.28,1.63-1.57l.07-.09h0c-.14.11,0,0,.16-.21l1-1.29.1.2.34-.34s.64-.65.82.07a8.08,8.08,0,0,0,3.78.52h0l1.75-.44a1,1,0,0,1,.38-.22c.14,0,.28-.12.47-.21a7.51,7.51,0,0,0,1.77,3.8c-.07.07-.16.13-.24.2l1.32,1.32.25-.24a15.3,15.3,0,0,0,2.1.83,7.1,7.1,0,0,0,8.87-5.79.66.66,0,0,1,.3-.42,7.11,7.11,0,0,0,3.27-10.32Z"/><path class="cls-12" d="M1100.44,1296.64h0l.16-.21C1100.4,1296.64,1100.3,1296.75,1100.44,1296.64Z"/><path class="cls-12" d="M1108.45,1300.17c-.49.17-.86,0-.9-.53a9,9,0,0,1,.08-1.87c.09-.68.3-1.33.42-2a1,1,0,0,1,.3-.61l-1.75.44a4.37,4.37,0,0,1-.11.62,16.77,16.77,0,0,1-.63,2c-.28.67-.8.72-1.23.13-.6-.85-1.13-1.74-1.68-2.63-.14-.23-.24-.49-.37-.74l.24.08c-.18-.72-.82-.07-.82-.07l-.34.34c.42.88.83,1.75,1.29,2.69a4.9,4.9,0,0,1-2.77-1l.19-.26c-.28.29-1,1-1.63,1.57l0,0c1,.55,1.92,1.09,2.89,1.61a1.15,1.15,0,0,0,.63.14c.42,0,.45.19.46.51.06,1.71.15,3.42.22,5.14a17.44,17.44,0,0,1-.44,4.44l-1,4.3a2.48,2.48,0,0,0,0,.27h8.5c-.39-2-.8-3.88-1.17-5.83a17.46,17.46,0,0,1,.17-4.84,3.65,3.65,0,0,1,1.38-2.5c.56-.5,1.09-1,1.63-1.51l-1.32-1.32A6.94,6.94,0,0,1,1108.45,1300.17Z"/><path class="cls-16" d="M1036.07,1388.44h17.13l-13.87-14.68h10.2l-12.64-14.68h8.56l-11.83-13.87-10.6,13.87h8.16l-12.64,14.68h9.38l-12.24,14.68h20.39Z"/><rect class="cls-16" x="1031.59" y="1388.45" width="4.49" height="8.55"/><path class="cls-12" d="M1055.44,1364.64l-.07.09C1055.49,1364.62,1055.52,1364.57,1055.44,1364.64Z"/><path class="cls-12" d="M1060,1364l1.6-.4h0a8.08,8.08,0,0,1-3.78-.52l0,.07C1058,1364,1060,1364,1060,1364Z"/><path class="cls-12" d="M1065,1366l.73.73c.08-.07.17-.13.24-.2a7.51,7.51,0,0,1-1.77-3.8c-.19.09-.33.16-.47.21a1,1,0,0,0-.38.22l.65-.16Z"/><path class="cls-12" d="M1056.56,1363.14l-1,1.29,1.06-1.09Z"/><path class="cls-12" d="M1081.84,1352.11a1.3,1.3,0,0,0-.15-.23c-.54-.47-.43-1-.28-1.62a7,7,0,0,0-3.91-8c-.62-.28-1.3-.4-2-.62a.72.72,0,0,1-.41-.31,7,7,0,0,0-2.4-3,6.48,6.48,0,0,0-3.23-1.26,7,7,0,0,0-4.52.91c-1.77-2.68-4.21-4-7.44-3.49s-5.08,2.66-5.81,5.77a19.79,19.79,0,0,0-2,.13,7,7,0,0,0-5.89,7.1.75.75,0,0,1-.36.73,6.54,6.54,0,0,0-2.25,2.69,6.88,6.88,0,0,0,.45,6.85,15.56,15.56,0,0,0,1.23,1.48.89.89,0,0,1,.24.52,7.1,7.1,0,0,0,7.91,7.13,11.87,11.87,0,0,0,2.15-.6.64.64,0,0,1,.17,0,.73.73,0,0,1,.4.09c.58-.56,1.35-1.28,1.63-1.57l.07-.09h0c-.14.11,0,0,.16-.21l1-1.29.1.2.34-.34s.64-.65.82.07a8.08,8.08,0,0,0,3.78.52h0l1.75-.44a1,1,0,0,1,.38-.22c.14,0,.28-.12.47-.21a7.51,7.51,0,0,0,1.77,3.8c-.07.07-.16.13-.24.2l1.32,1.32.25-.24a15.3,15.3,0,0,0,2.1.83,7.1,7.1,0,0,0,8.87-5.79.66.66,0,0,1,.3-.42,7.11,7.11,0,0,0,3.27-10.32Z"/><path class="cls-12" d="M1055.44,1364.64h0l.16-.21C1055.4,1364.64,1055.3,1364.75,1055.44,1364.64Z"/><path class="cls-12" d="M1063.45,1368.17c-.49.17-.86,0-.9-.53a9,9,0,0,1,.08-1.87c.09-.68.3-1.33.42-2a1,1,0,0,1,.3-.61l-1.75.44a4.37,4.37,0,0,1-.11.62,16.77,16.77,0,0,1-.63,2c-.28.67-.8.72-1.23.13-.6-.85-1.13-1.74-1.68-2.63-.14-.23-.24-.49-.37-.74l.24.08c-.18-.72-.82-.07-.82-.07l-.34.34c.42.88.83,1.75,1.29,2.69a4.9,4.9,0,0,1-2.77-1l.19-.26c-.28.29-1,1-1.63,1.57l0,0c1,.55,1.92,1.09,2.89,1.61a1.15,1.15,0,0,0,.63.14c.42,0,.45.19.46.51.06,1.71.15,3.42.22,5.14a17.44,17.44,0,0,1-.44,4.44l-1,4.3a2.48,2.48,0,0,0,0,.27h8.5c-.39-2-.8-3.88-1.17-5.83a17.46,17.46,0,0,1,.17-4.84,3.65,3.65,0,0,1,1.38-2.5c.56-.5,1.09-1,1.63-1.51l-1.32-1.32A6.94,6.94,0,0,1,1063.45,1368.17Z"/><path class="cls-16" d="M1034.07,1291.44h17.13l-13.87-14.68h10.2l-12.64-14.68h8.56l-11.83-13.87-10.6,13.87h8.16l-12.64,14.68h9.38l-12.24,14.68h20.39Z"/><rect class="cls-16" x="1029.59" y="1291.45" width="4.49" height="8.55"/><path class="cls-12" d="M1053.44,1267.64l-.07.09C1053.49,1267.62,1053.52,1267.57,1053.44,1267.64Z"/><path class="cls-12" d="M1058,1267l1.6-.4h0a8.08,8.08,0,0,1-3.78-.52l0,.07C1056,1267,1058,1267,1058,1267Z"/><path class="cls-12" d="M1063,1269l.73.73c.08-.07.17-.13.24-.2a7.51,7.51,0,0,1-1.77-3.8c-.19.09-.33.16-.47.21a1,1,0,0,0-.38.22l.65-.16Z"/><path class="cls-12" d="M1054.56,1266.14l-1,1.29,1.06-1.09Z"/><path class="cls-12" d="M1079.84,1255.11a1.3,1.3,0,0,0-.15-.23c-.54-.47-.43-1-.28-1.62a7,7,0,0,0-3.91-8c-.62-.28-1.3-.4-2-.62a.72.72,0,0,1-.41-.31,7,7,0,0,0-2.4-3,6.48,6.48,0,0,0-3.23-1.26,7,7,0,0,0-4.52.91c-1.77-2.68-4.21-4-7.44-3.49s-5.08,2.66-5.81,5.77a19.79,19.79,0,0,0-2,.13,7,7,0,0,0-5.89,7.1.75.75,0,0,1-.36.73,6.54,6.54,0,0,0-2.25,2.69,6.88,6.88,0,0,0,.45,6.85,15.56,15.56,0,0,0,1.23,1.48.89.89,0,0,1,.24.52,7.1,7.1,0,0,0,7.91,7.13,11.87,11.87,0,0,0,2.15-.6.64.64,0,0,1,.17,0,.73.73,0,0,1,.4.09c.58-.56,1.35-1.28,1.63-1.57l.07-.09h0c-.14.11,0,0,.16-.21l1-1.29.1.2.34-.34s.64-.65.82.07a8.08,8.08,0,0,0,3.78.52h0l1.75-.44a1,1,0,0,1,.38-.22c.14,0,.28-.12.47-.21a7.51,7.51,0,0,0,1.77,3.8c-.07.07-.16.13-.24.2l1.32,1.32.25-.24a15.3,15.3,0,0,0,2.1.83,7.1,7.1,0,0,0,8.87-5.79.66.66,0,0,1,.3-.42,7.11,7.11,0,0,0,3.27-10.32Z"/><path class="cls-12" d="M1053.44,1267.64h0l.16-.21C1053.4,1267.64,1053.3,1267.75,1053.44,1267.64Z"/><path class="cls-12" d="M1061.45,1271.17c-.49.17-.86,0-.9-.53a9,9,0,0,1,.08-1.87c.09-.68.3-1.33.42-2a1,1,0,0,1,.3-.61l-1.75.44a4.37,4.37,0,0,1-.11.62,16.77,16.77,0,0,1-.63,2c-.28.67-.8.72-1.23.13-.6-.85-1.13-1.74-1.68-2.63-.14-.23-.24-.49-.37-.74l.24.08c-.18-.72-.82-.07-.82-.07l-.34.34c.42.88.83,1.75,1.29,2.69a4.9,4.9,0,0,1-2.77-1l.19-.26c-.28.29-1,1-1.63,1.57l0,0c1,.55,1.92,1.09,2.89,1.61a1.15,1.15,0,0,0,.63.14c.42,0,.45.19.46.51.06,1.71.15,3.42.22,5.14a17.44,17.44,0,0,1-.44,4.44l-1,4.3a2.48,2.48,0,0,0,0,.27h8.5c-.39-2-.8-3.88-1.17-5.83a17.46,17.46,0,0,1,.17-4.84,3.65,3.65,0,0,1,1.38-2.5c.56-.5,1.09-1,1.63-1.51l-1.32-1.32A6.94,6.94,0,0,1,1061.45,1271.17Z"/><path class="cls-16" d="M1519.07,323.44h17.13l-13.87-14.68h10.2l-12.64-14.68h8.56l-11.83-13.87L1506,294.08h8.16l-12.64,14.68h9.38l-12.24,14.68h20.39Z"/><rect class="cls-16" x="1514.59" y="323.45" width="4.49" height="8.55"/><path class="cls-12" d="M1538.44,299.64l-.07.09C1538.49,299.62,1538.52,299.57,1538.44,299.64Z"/><path class="cls-12" d="M1543,299l1.6-.4h0a8.08,8.08,0,0,1-3.78-.52l0,.07C1541,299,1543,299,1543,299Z"/><path class="cls-12" d="M1548,301l.73.73c.08-.07.17-.13.24-.2a7.51,7.51,0,0,1-1.77-3.8c-.19.09-.33.16-.47.21a1,1,0,0,0-.38.22l.65-.16Z"/><path class="cls-12" d="M1539.56,298.14c-.32.44-.64.86-1,1.29l1.06-1.09Z"/><path class="cls-12" d="M1564.84,287.11a1.3,1.3,0,0,0-.15-.23c-.54-.47-.43-1-.28-1.62a7,7,0,0,0-3.91-8c-.62-.28-1.3-.4-2-.62a.72.72,0,0,1-.41-.31,7,7,0,0,0-2.4-3,6.48,6.48,0,0,0-3.23-1.26,7,7,0,0,0-4.52.91c-1.77-2.68-4.21-4.05-7.44-3.49s-5.08,2.66-5.81,5.77a19.79,19.79,0,0,0-2,.13,7,7,0,0,0-5.89,7.1.75.75,0,0,1-.36.73,6.54,6.54,0,0,0-2.25,2.69,6.88,6.88,0,0,0,.45,6.85,15.56,15.56,0,0,0,1.23,1.48.89.89,0,0,1,.24.52,7.1,7.1,0,0,0,7.91,7.13,11.87,11.87,0,0,0,2.15-.6.64.64,0,0,1,.17-.05.73.73,0,0,1,.4.09c.58-.56,1.35-1.28,1.63-1.57l.07-.09h0c-.14.11,0,0,.16-.21.32-.43.64-.85,1-1.29l.1.2.34-.34s.64-.65.82.07a8.08,8.08,0,0,0,3.78.52h0l1.75-.44a1,1,0,0,1,.38-.22c.14-.05.28-.12.47-.21a7.51,7.51,0,0,0,1.77,3.8c-.07.07-.16.13-.24.2l1.32,1.32.25-.24a15.3,15.3,0,0,0,2.1.83,7.1,7.1,0,0,0,8.87-5.79.66.66,0,0,1,.3-.42,7.11,7.11,0,0,0,3.27-10.32Z"/><path class="cls-12" d="M1538.44,299.64h0l.16-.21C1538.4,299.64,1538.3,299.75,1538.44,299.64Z"/><path class="cls-12" d="M1546.45,303.17c-.49.17-.86,0-.9-.53a9,9,0,0,1,.08-1.87c.09-.68.3-1.33.42-2a1,1,0,0,1,.3-.61l-1.75.44a4.37,4.37,0,0,1-.11.62,16.77,16.77,0,0,1-.63,2c-.28.67-.8.72-1.23.13-.6-.85-1.13-1.74-1.68-2.63-.14-.23-.24-.49-.37-.74l.24.08c-.18-.72-.82-.07-.82-.07l-.34.34c.42.88.83,1.75,1.29,2.69a4.9,4.9,0,0,1-2.77-1l.19-.26c-.28.29-1,1-1.63,1.57l0,0c1,.55,1.92,1.09,2.89,1.61a1.15,1.15,0,0,0,.63.14c.42,0,.45.19.46.51.06,1.71.15,3.42.22,5.14a17.44,17.44,0,0,1-.44,4.44l-1,4.3a2.48,2.48,0,0,0,0,.27h8.5c-.39-2-.8-3.88-1.17-5.83a17.46,17.46,0,0,1,.17-4.84,3.65,3.65,0,0,1,1.38-2.5c.56-.5,1.09-1,1.63-1.51l-1.32-1.32A6.94,6.94,0,0,1,1546.45,303.17Z"/><path class="cls-16" d="M1565.07,342.44h17.13l-13.87-14.68h10.2l-12.64-14.68h8.56l-11.83-13.87L1552,313.08h8.16l-12.64,14.68h9.38l-12.24,14.68h20.39Z"/><rect class="cls-16" x="1560.59" y="342.45" width="4.49" height="8.55"/><path class="cls-12" d="M1488.44,338.91l-.07.09C1488.49,338.89,1488.52,338.85,1488.44,338.91Z"/><path class="cls-12" d="M1493,338.27l1.6-.4h0a8.08,8.08,0,0,1-3.78-.52l0,.07C1491,338.27,1493,338.27,1493,338.27Z"/><path class="cls-12" d="M1498,340.27l.73.74.24-.21a7.51,7.51,0,0,1-1.77-3.8c-.19.09-.33.16-.47.21a.9.9,0,0,0-.38.23l.65-.17Z"/><path class="cls-12" d="M1489.56,337.41c-.32.44-.64.86-1,1.29l1.06-1.09Z"/><path class="cls-12" d="M1514.84,326.38a1.21,1.21,0,0,0-.15-.22c-.54-.48-.43-1-.28-1.63a7,7,0,0,0-3.91-8c-.62-.28-1.3-.4-2-.62a.72.72,0,0,1-.41-.31,7.09,7.09,0,0,0-2.4-3,6.58,6.58,0,0,0-3.23-1.26,7,7,0,0,0-4.52.91c-1.77-2.67-4.21-4.05-7.44-3.48s-5.08,2.66-5.81,5.77a17.36,17.36,0,0,0-2,.12,7,7,0,0,0-5.89,7.11.75.75,0,0,1-.36.72,6.63,6.63,0,0,0-2.25,2.7,6.88,6.88,0,0,0,.45,6.85,15.45,15.45,0,0,0,1.23,1.47.89.89,0,0,1,.24.52,7.1,7.1,0,0,0,7.91,7.13,11.87,11.87,0,0,0,2.15-.6.59.59,0,0,1,.17,0,.64.64,0,0,1,.4.08c.58-.55,1.35-1.28,1.63-1.57l.07-.09h0c-.14.11,0,0,.16-.21.32-.43.64-.85,1-1.29l.1.2.34-.34s.64-.65.82.07a8.08,8.08,0,0,0,3.78.52h0l1.75-.43a.9.9,0,0,1,.38-.23c.14,0,.28-.12.47-.21a7.51,7.51,0,0,0,1.77,3.8l-.24.21,1.32,1.31.25-.24a15.32,15.32,0,0,0,2.1.84,7.11,7.11,0,0,0,8.87-5.8.69.69,0,0,1,.3-.42,7.11,7.11,0,0,0,3.27-10.32Z"/><path class="cls-12" d="M1488.44,338.91h0l.16-.21C1488.4,338.91,1488.3,339,1488.44,338.91Z"/><path class="cls-12" d="M1496.45,342.44c-.49.17-.86,0-.9-.52a9.08,9.08,0,0,1,.08-1.88c.09-.68.3-1.33.42-2a1,1,0,0,1,.3-.6l-1.75.43a4.81,4.81,0,0,1-.11.63,17.19,17.19,0,0,1-.63,2c-.28.67-.8.73-1.23.13-.6-.84-1.13-1.74-1.68-2.62-.14-.24-.24-.5-.37-.75l.24.08c-.18-.72-.82-.07-.82-.07l-.34.34c.42.88.83,1.75,1.29,2.69a4.9,4.9,0,0,1-2.77-1l.19-.26c-.28.29-1,1-1.63,1.57l0,0c1,.55,1.92,1.09,2.89,1.61a1.25,1.25,0,0,0,.63.15c.42,0,.45.18.46.5.06,1.72.15,3.43.22,5.14a17.56,17.56,0,0,1-.44,4.45l-1,4.29a2.48,2.48,0,0,0,0,.27h8.5c-.39-1.94-.8-3.88-1.17-5.83a17.46,17.46,0,0,1,.17-4.84,3.65,3.65,0,0,1,1.38-2.5c.56-.5,1.09-1,1.63-1.51l-1.32-1.31A6.91,6.91,0,0,1,1496.45,342.44Z"/><path class="cls-16" d="M1466.07,308.44h17.13l-13.87-14.68h10.2l-12.64-14.68h8.56l-11.83-13.87L1453,279.08h8.16l-12.64,14.68h9.38l-12.24,14.68h20.39Z"/><rect class="cls-16" x="1461.59" y="308.45" width="4.49" height="8.55"/><path class="cls-12" d="M1485.44,284.64l-.07.09C1485.49,284.62,1485.52,284.57,1485.44,284.64Z"/><path class="cls-12" d="M1490,284l1.6-.4h0a8.08,8.08,0,0,1-3.78-.52l0,.07C1488,284,1490,284,1490,284Z"/><path class="cls-12" d="M1495,286l.73.73c.08-.07.17-.13.24-.2a7.51,7.51,0,0,1-1.77-3.8c-.19.09-.33.16-.47.21a1,1,0,0,0-.38.22l.65-.16Z"/><path class="cls-12" d="M1486.56,283.14c-.32.44-.64.86-1,1.29l1.06-1.09Z"/><path class="cls-12" d="M1511.84,272.11a1.3,1.3,0,0,0-.15-.23c-.54-.47-.43-1-.28-1.62a7,7,0,0,0-3.91-8c-.62-.28-1.3-.4-2-.62a.72.72,0,0,1-.41-.31,7,7,0,0,0-2.4-3,6.48,6.48,0,0,0-3.23-1.26,7,7,0,0,0-4.52.91c-1.77-2.68-4.21-4-7.44-3.49s-5.08,2.66-5.81,5.77a19.79,19.79,0,0,0-2,.13,7,7,0,0,0-5.89,7.1.75.75,0,0,1-.36.73,6.54,6.54,0,0,0-2.25,2.69,6.88,6.88,0,0,0,.45,6.85,15.56,15.56,0,0,0,1.23,1.48.89.89,0,0,1,.24.52,7.1,7.1,0,0,0,7.91,7.13,11.87,11.87,0,0,0,2.15-.6.64.64,0,0,1,.17-.05.73.73,0,0,1,.4.09c.58-.56,1.35-1.28,1.63-1.57l.07-.09h0c-.14.11,0,0,.16-.21.32-.43.64-.85,1-1.29l.1.2.34-.34s.64-.65.82.07a8.08,8.08,0,0,0,3.78.52h0l1.75-.44a1,1,0,0,1,.38-.22c.14-.05.28-.12.47-.21a7.51,7.51,0,0,0,1.77,3.8c-.07.07-.16.13-.24.2l1.32,1.32.25-.24a15.3,15.3,0,0,0,2.1.83,7.1,7.1,0,0,0,8.87-5.79.66.66,0,0,1,.3-.42,7.11,7.11,0,0,0,3.27-10.32Z"/><path class="cls-12" d="M1485.44,284.64h0l.16-.21C1485.4,284.64,1485.3,284.75,1485.44,284.64Z"/><path class="cls-12" d="M1493.45,288.17c-.49.17-.86,0-.9-.53a9,9,0,0,1,.08-1.87c.09-.68.3-1.33.42-2a1,1,0,0,1,.3-.61l-1.75.44a4.37,4.37,0,0,1-.11.62,16.77,16.77,0,0,1-.63,2c-.28.67-.8.72-1.23.13-.6-.85-1.13-1.74-1.68-2.63-.14-.23-.24-.49-.37-.74l.24.08c-.18-.72-.82-.07-.82-.07l-.34.34c.42.88.83,1.75,1.29,2.69a4.9,4.9,0,0,1-2.77-1l.19-.26c-.28.29-1,1-1.63,1.57l0,0c1,.55,1.92,1.09,2.89,1.61a1.15,1.15,0,0,0,.63.14c.42,0,.45.19.46.51.06,1.71.15,3.42.22,5.14a17.44,17.44,0,0,1-.44,4.44l-1,4.3a2.48,2.48,0,0,0,0,.27h8.5c-.39-2-.8-3.88-1.17-5.83a17.46,17.46,0,0,1,.17-4.84,3.65,3.65,0,0,1,1.38-2.5c.56-.5,1.09-1,1.63-1.51l-1.32-1.32A6.94,6.94,0,0,1,1493.45,288.17Z"/><path class="cls-16" d="M291.94,1069.68h17.13L295.2,1055h10.2l-12.64-14.68h8.56l-11.82-13.86-10.61,13.86h8.16L274.41,1055h9.38l-12.24,14.68h15.91v0h4.48Z"/><rect class="cls-16" x="287.46" y="1069.7" width="4.49" height="8.55"/><path class="cls-12" d="M320.44,1027.91l-.07.09C320.49,1027.89,320.52,1027.85,320.44,1027.91Z"/><path class="cls-12" d="M325,1027.27l1.6-.4h0a8.08,8.08,0,0,1-3.78-.52l0,.07C323,1027.27,325,1027.27,325,1027.27Z"/><path class="cls-12" d="M330,1029.27l.73.74.24-.21a7.51,7.51,0,0,1-1.77-3.8c-.19.09-.33.16-.47.21a.9.9,0,0,0-.38.23l.65-.17Z"/><path class="cls-12" d="M321.56,1026.41l-1,1.29,1.06-1.09Z"/><path class="cls-12" d="M346.84,1015.38a1.21,1.21,0,0,0-.15-.22c-.54-.48-.43-1-.28-1.63a7,7,0,0,0-3.91-8c-.62-.28-1.3-.4-1.95-.62a.72.72,0,0,1-.41-.31,7.09,7.09,0,0,0-2.4-3,6.58,6.58,0,0,0-3.23-1.26,7,7,0,0,0-4.52.91c-1.77-2.67-4.21-4.05-7.44-3.48s-5.08,2.66-5.81,5.77a17.36,17.36,0,0,0-2.05.12,7,7,0,0,0-5.89,7.11.75.75,0,0,1-.36.72,6.63,6.63,0,0,0-2.25,2.7,6.88,6.88,0,0,0,.45,6.85,15.45,15.45,0,0,0,1.23,1.47.89.89,0,0,1,.24.52,7.1,7.1,0,0,0,7.91,7.13,11.87,11.87,0,0,0,2.15-.6.59.59,0,0,1,.17,0,.64.64,0,0,1,.4.08c.58-.55,1.35-1.28,1.63-1.57l.07-.09h0c-.14.11,0,0,.16-.21l1-1.29.1.2.34-.34s.64-.65.82.07a8.08,8.08,0,0,0,3.78.52h0l1.75-.43a.9.9,0,0,1,.38-.23c.14,0,.28-.12.47-.21a7.51,7.51,0,0,0,1.77,3.8l-.24.21,1.32,1.31.25-.24a15.32,15.32,0,0,0,2.1.84,7.11,7.11,0,0,0,8.87-5.8.69.69,0,0,1,.3-.42,7.11,7.11,0,0,0,3.27-10.32Z"/><path class="cls-12" d="M320.44,1027.91h0l.16-.21C320.4,1027.91,320.3,1028,320.44,1027.91Z"/><path class="cls-12" d="M328.45,1031.44c-.49.17-.86,0-.9-.52a9.08,9.08,0,0,1,.08-1.88c.09-.68.3-1.33.42-2a1,1,0,0,1,.3-.6l-1.75.43a4.81,4.81,0,0,1-.11.63,17.19,17.19,0,0,1-.63,2c-.28.67-.8.73-1.23.13-.6-.84-1.13-1.74-1.68-2.62-.14-.24-.24-.5-.37-.75l.24.08c-.18-.72-.82-.07-.82-.07l-.34.34c.42.88.83,1.75,1.29,2.69a4.9,4.9,0,0,1-2.77-1l.19-.26c-.28.29-1.05,1-1.63,1.57l0,0c1,.55,1.92,1.09,2.89,1.61a1.25,1.25,0,0,0,.63.15c.42,0,.45.18.46.5.06,1.72.15,3.43.22,5.14a17.56,17.56,0,0,1-.44,4.45l-1,4.29a2.48,2.48,0,0,0,0,.27H330c-.39-1.94-.8-3.88-1.17-5.83a17.46,17.46,0,0,1,.17-4.84,3.65,3.65,0,0,1,1.38-2.5c.56-.5,1.09-1,1.63-1.51l-1.32-1.31A6.91,6.91,0,0,1,328.45,1031.44Z"/><path class="cls-12" d="M275.44,1036.91l-.07.09C275.49,1036.89,275.52,1036.85,275.44,1036.91Z"/><path class="cls-12" d="M280,1036.27l1.6-.4h0a8.08,8.08,0,0,1-3.78-.52l0,.07C278,1036.27,280,1036.27,280,1036.27Z"/><path class="cls-12" d="M285,1038.27l.73.74.24-.21a7.51,7.51,0,0,1-1.77-3.8c-.19.09-.33.16-.47.21a.9.9,0,0,0-.38.23l.65-.17Z"/><path class="cls-12" d="M276.56,1035.41l-1,1.29,1.06-1.09Z"/><path class="cls-12" d="M301.84,1024.38a1.21,1.21,0,0,0-.15-.22c-.54-.48-.43-1-.28-1.63a7,7,0,0,0-3.91-8c-.62-.28-1.3-.4-1.95-.62a.72.72,0,0,1-.41-.31,7.09,7.09,0,0,0-2.4-3,6.58,6.58,0,0,0-3.23-1.26,7,7,0,0,0-4.52.91c-1.77-2.67-4.21-4.05-7.44-3.48s-5.08,2.66-5.81,5.77a17.36,17.36,0,0,0-2.05.12,7,7,0,0,0-5.89,7.11.75.75,0,0,1-.36.72,6.63,6.63,0,0,0-2.25,2.7,6.88,6.88,0,0,0,.45,6.85,15.45,15.45,0,0,0,1.23,1.47.89.89,0,0,1,.24.52,7.1,7.1,0,0,0,7.91,7.13,11.87,11.87,0,0,0,2.15-.6.59.59,0,0,1,.17,0,.64.64,0,0,1,.4.08c.58-.55,1.35-1.28,1.63-1.57l.07-.09h0c-.14.11,0,0,.16-.21l1-1.29.1.2.34-.34s.64-.65.82.07a8.08,8.08,0,0,0,3.78.52h0l1.75-.43a.9.9,0,0,1,.38-.23c.14,0,.28-.12.47-.21a7.51,7.51,0,0,0,1.77,3.8l-.24.21,1.32,1.31.25-.24a15.32,15.32,0,0,0,2.1.84,7.11,7.11,0,0,0,8.87-5.8.69.69,0,0,1,.3-.42,7.11,7.11,0,0,0,3.27-10.32Z"/><path class="cls-12" d="M275.44,1036.91h0l.16-.21C275.4,1036.91,275.3,1037,275.44,1036.91Z"/><path class="cls-12" d="M283.45,1040.44c-.49.17-.86,0-.9-.52a9.08,9.08,0,0,1,.08-1.88c.09-.68.3-1.33.42-2a1,1,0,0,1,.3-.6l-1.75.43a4.81,4.81,0,0,1-.11.63,17.19,17.19,0,0,1-.63,2c-.28.67-.8.73-1.23.13-.6-.84-1.13-1.74-1.68-2.62-.14-.24-.24-.5-.37-.75l.24.08c-.18-.72-.82-.07-.82-.07l-.34.34c.42.88.83,1.75,1.29,2.69a4.9,4.9,0,0,1-2.77-1l.19-.26c-.28.29-1.05,1-1.63,1.57l0,0c1,.55,1.92,1.09,2.89,1.61a1.25,1.25,0,0,0,.63.15c.42,0,.45.18.46.5.06,1.72.15,3.43.22,5.14a17.56,17.56,0,0,1-.44,4.45l-1,4.29a2.48,2.48,0,0,0,0,.27H285c-.39-1.94-.8-3.88-1.17-5.83a17.46,17.46,0,0,1,.17-4.84,3.65,3.65,0,0,1,1.38-2.5c.56-.5,1.09-1,1.63-1.51l-1.32-1.31A6.91,6.91,0,0,1,283.45,1040.44Z"/><path class="cls-16" d="M257.07,1006.44H274.2l-13.87-14.68h10.2l-12.64-14.68h8.56l-11.83-13.87L244,977.08h8.16l-12.64,14.68h9.38l-12.24,14.68h20.39Z"/><rect class="cls-16" x="252.59" y="1006.45" width="4.49" height="8.55"/><path class="cls-12" d="M266.44,968.91l-.07.09C266.49,968.89,266.52,968.85,266.44,968.91Z"/><path class="cls-12" d="M271,968.27l1.6-.4h0a8.08,8.08,0,0,1-3.78-.52l0,.07C269,968.27,271,968.27,271,968.27Z"/><path class="cls-12" d="M276,970.27l.73.74.24-.21a7.51,7.51,0,0,1-1.77-3.8c-.19.09-.33.16-.47.21a.9.9,0,0,0-.38.23l.65-.17Z"/><path class="cls-12" d="M267.56,967.41l-1,1.29,1.06-1.09Z"/><path class="cls-12" d="M292.84,956.38a1.21,1.21,0,0,0-.15-.22c-.54-.48-.43-1-.28-1.63a7,7,0,0,0-3.91-8c-.62-.28-1.3-.4-1.95-.62a.72.72,0,0,1-.41-.31,7.09,7.09,0,0,0-2.4-3,6.58,6.58,0,0,0-3.23-1.26,7,7,0,0,0-4.52.91c-1.77-2.67-4.21-4.05-7.44-3.48s-5.08,2.66-5.81,5.77a17.36,17.36,0,0,0-2.05.12,7,7,0,0,0-5.89,7.11.75.75,0,0,1-.36.72,6.63,6.63,0,0,0-2.25,2.7,6.88,6.88,0,0,0,.45,6.85,15.45,15.45,0,0,0,1.23,1.47.89.89,0,0,1,.24.52,7.1,7.1,0,0,0,7.91,7.13,11.87,11.87,0,0,0,2.15-.6.59.59,0,0,1,.17,0,.64.64,0,0,1,.4.08c.58-.55,1.35-1.28,1.63-1.57l.07-.09h0c-.14.11,0,0,.16-.21l1-1.29.1.2.34-.34s.64-.65.82.07a8.08,8.08,0,0,0,3.78.52h0l1.75-.43a.9.9,0,0,1,.38-.23c.14-.05.28-.12.47-.21a7.51,7.51,0,0,0,1.77,3.8l-.24.21,1.32,1.31.25-.24a15.32,15.32,0,0,0,2.1.84,7.11,7.11,0,0,0,8.87-5.8.69.69,0,0,1,.3-.42,7.11,7.11,0,0,0,3.27-10.32Z"/><path class="cls-12" d="M266.44,968.91h0l.16-.21C266.4,968.91,266.3,969,266.44,968.91Z"/><path class="cls-12" d="M274.45,972.44c-.49.17-.86,0-.9-.52a9.08,9.08,0,0,1,.08-1.88c.09-.68.3-1.33.42-2a1,1,0,0,1,.3-.6l-1.75.43a4.81,4.81,0,0,1-.11.63,17.19,17.19,0,0,1-.63,2c-.28.67-.8.73-1.23.13-.6-.84-1.13-1.74-1.68-2.62-.14-.24-.24-.5-.37-.75l.24.08c-.18-.72-.82-.07-.82-.07l-.34.34c.42.88.83,1.75,1.29,2.69a4.9,4.9,0,0,1-2.77-1l.19-.26c-.28.29-1.05,1-1.63,1.57l0,0c1,.55,1.92,1.09,2.89,1.61a1.25,1.25,0,0,0,.63.15c.42,0,.45.18.46.5.06,1.72.15,3.43.22,5.14a17.56,17.56,0,0,1-.44,4.45l-1,4.29a2.48,2.48,0,0,0,0,.27H276c-.39-1.94-.8-3.88-1.17-5.83a17.46,17.46,0,0,1,.17-4.84,3.65,3.65,0,0,1,1.38-2.5c.56-.5,1.09-1,1.63-1.51L276.73,971A6.91,6.91,0,0,1,274.45,972.44Z"/><path class="cls-12" d="M228.44,950.91l-.07.09C228.49,950.89,228.52,950.85,228.44,950.91Z"/><path class="cls-12" d="M233,950.27l1.6-.4h0a8.08,8.08,0,0,1-3.78-.52l0,.07C231,950.27,233,950.27,233,950.27Z"/><path class="cls-12" d="M238,952.27l.73.74.24-.21a7.51,7.51,0,0,1-1.77-3.8c-.19.09-.33.16-.47.21a.9.9,0,0,0-.38.23l.65-.17Z"/><path class="cls-12" d="M229.56,949.41l-1,1.29,1.06-1.09Z"/><path class="cls-12" d="M254.84,938.38a1.21,1.21,0,0,0-.15-.22c-.54-.48-.43-1-.28-1.63a7,7,0,0,0-3.91-8c-.62-.28-1.3-.4-1.95-.62a.72.72,0,0,1-.41-.31,7.09,7.09,0,0,0-2.4-3,6.58,6.58,0,0,0-3.23-1.26,7,7,0,0,0-4.52.91c-1.77-2.67-4.21-4.05-7.44-3.48s-5.08,2.66-5.81,5.77a17.36,17.36,0,0,0-2.05.12,7,7,0,0,0-5.89,7.11.75.75,0,0,1-.36.72,6.63,6.63,0,0,0-2.25,2.7,6.88,6.88,0,0,0,.45,6.85,15.45,15.45,0,0,0,1.23,1.47.89.89,0,0,1,.24.52,7.1,7.1,0,0,0,7.91,7.13,11.87,11.87,0,0,0,2.15-.6.59.59,0,0,1,.17,0,.64.64,0,0,1,.4.08c.58-.55,1.35-1.28,1.63-1.57l.07-.09h0c-.14.11,0,0,.16-.21l1-1.29.1.2.34-.34s.64-.65.82.07a8.08,8.08,0,0,0,3.78.52h0l1.75-.43a.9.9,0,0,1,.38-.23c.14-.05.28-.12.47-.21a7.51,7.51,0,0,0,1.77,3.8l-.24.21,1.32,1.31.25-.24a15.32,15.32,0,0,0,2.1.84,7.11,7.11,0,0,0,8.87-5.8.69.69,0,0,1,.3-.42,7.11,7.11,0,0,0,3.27-10.32Z"/><path class="cls-12" d="M228.44,950.91h0l.16-.21C228.4,950.91,228.3,951,228.44,950.91Z"/><path class="cls-12" d="M236.45,954.44c-.49.17-.86,0-.9-.52a9.08,9.08,0,0,1,.08-1.88c.09-.68.3-1.33.42-2a1,1,0,0,1,.3-.6l-1.75.43a4.81,4.81,0,0,1-.11.63,17.19,17.19,0,0,1-.63,2c-.28.67-.8.73-1.23.13-.6-.84-1.13-1.74-1.68-2.62-.14-.24-.24-.5-.37-.75l.24.08c-.18-.72-.82-.07-.82-.07l-.34.34c.42.88.83,1.75,1.29,2.69a4.9,4.9,0,0,1-2.77-1l.19-.26c-.28.29-1.05,1-1.63,1.57l0,0c.95.55,1.92,1.09,2.89,1.61a1.25,1.25,0,0,0,.63.15c.42,0,.45.18.46.5.06,1.72.15,3.43.22,5.14a17.56,17.56,0,0,1-.44,4.45l-1,4.29a2.48,2.48,0,0,0,0,.27H238c-.39-1.94-.8-3.88-1.17-5.83a17.46,17.46,0,0,1,.17-4.84,3.65,3.65,0,0,1,1.38-2.5c.56-.5,1.09-1,1.63-1.51L238.73,953A6.91,6.91,0,0,1,236.45,954.44Z"/></g><g id="Maske"><path class="cls-7" d="M192,778.5C192,348.55,540.55,0,970.5,0H0V1557H970.5C540.55,1557,192,1208.45,192,778.5Z"/><path class="cls-7" d="M970.5,0c430,0,778.5,348.55,778.5,778.5S1400.45,1557,970.5,1557H1947V0Z"/></g><g id="Titel"><rect x="411" y="92" width="565.42" height="69.71"/><rect x="411" y="167.52" width="639" height="69.71"/><text class="cls-17" transform="translate(427.78 146.9)"><tspan xml:space="preserve">Wie oft besuche ich  </tspan><tspan x="0" y="73">welche Orte in Zürich?</tspan><tspan class="cls-18"><tspan x="0" y="123">in einer </tspan><tspan class="cls-19" x="109.76" y="123">W</tspan><tspan class="cls-20" x="137.05" y="123">oche mit 168 Stunden</tspan></tspan></text></g></svg>